<?xml version="1.0" encoding="utf-8"?>
<!-- Generator: Adobe Illustrator 16.0.0, SVG Export Plug-In . SVG Version: 6.00 Build 0)  -->
<!DOCTYPE svg PUBLIC "-//W3C//DTD SVG 1.1//EN" "http://www.w3.org/Graphics/SVG/1.1/DTD/svg11.dtd">
<svg version="1.1" id="Layer_1" xmlns="http://www.w3.org/2000/svg" xmlns:xlink="http://www.w3.org/1999/xlink" x="0px" y="0px"
	 width="227.823px" height="366.753px" viewBox="0 0 227.823 366.753" enable-background="new 0 0 227.823 366.753"
	 xml:space="preserve">
<path fill="#FFFFFF" d="M223.342,143.089c-2.396-10.284-8.634-18.428-17.565-22.934c-5.081-2.563-10.782-3.863-16.944-3.863
	c-20.742,0-42.021,14.285-53.016,27.557c-3.198,3.86-6.114,8.038-8.876,12.721c-4.831-2.687-9.583-5.55-14.366-8.496
	c1.08-3.035,2.146-6.075,3.188-9.044c3.57-10.184,7.264-20.714,11.433-30.794c3.452-8.347,6.551-15.28,9.632-21.54
	c1.916,0.066,3.809,0.1,5.655,0.1c5.663,0,11.21-0.314,16.488-0.934c20.054-2.354,47.47-16.107,58.638-35.048
	c6.097-10.339,6.984-21.509,2.569-32.3C214.722,5.187,205.479,2.39,198.687,2.39c-23.234,0-51.44,32.082-57.178,40.023
	c-5.19,7.185-10.15,15.142-15.111,24.249c-1.548-0.089-3.138-0.196-4.804-0.321c-29.393-2.211-57.864-18.731-87.732-14.729
	c-9.103,1.22-9.036,12.2-3.837,17.537c7.979,8.191,24.284,3.455,34.268,4.282c10.56,0.874,20.416,5.491,30.521,8.319
	c2.571,0.719,20.471,7.046,22.28,3.257c-3.237,6.779-6.347,13.637-9.377,20.323c-4.629,10.208-9.393,20.717-14.568,30.835
	c-4.341-2.561-8.154-4.69-11.761-6.571c-7.787-4.061-18.149-8.721-29.244-8.721c-5.938,0-11.651,1.354-16.982,4.023
	c-13.478,6.75-25.172,20.344-29.793,34.631c-3.899,12.058-2.004,24.255,5.338,34.346c9.034,12.417,25.532,20.44,42.028,20.44
	c6.021,0,11.758-1.048,17.05-3.117c18.312-7.155,27.769-25.096,33.961-39.926c1.055-2.527,2.118-5.17,3.211-7.987
	c4.224,2.495,8.428,5.11,12.538,7.672c-3.853,8.823-5.588,16.447-5.293,23.206c0.857,19.644,11.595,28.133,28.641,35.463
	c2.793,1.201,5.513,2.231,8.143,3.228c12.084,4.579,20.066,7.603,21.635,20.743c1.098,9.204-1.082,17.808-6.305,24.88
	c-3.523,4.771-8.412,8.803-14.129,11.722c-0.274-7.349-0.936-14.246-1.999-20.915c-3.276-20.546-14.675-44.538-36.013-44.538
	c-4.122,0-8.447,0.924-12.856,2.746c-14.339,5.927-27.244,21.103-31.381,36.906c-3.141,11.995-1.07,23.429,5.829,32.195
	c14.233,18.084,42.203,22.55,57.502,23.605c0.205,8.531-0.558,16.849,0,25.444c0.261,4.01-0.558,8.095,0.563,12.032
	c1.359,4.772,5.838,9.027,10.572,5.229c5.189-4.164,5.268-13.605,5.778-19.587c0.075-0.878,1.105-23.063,1.225-23.071
	c3.021-0.197,5.933-0.498,8.699-0.9c7.556-1.1,15.988-4.743,22.007-9.51c10.717-8.49,15.472-21.753,19.015-34.82
	c2.334-8.608,3.081-15.309,2.422-21.726c-0.73-7.112-3.301-17.465-8.14-23.235c-6.29-7.503-15.281-13.123-26.725-16.704
	c-1.866-0.584-3.767-1.11-5.605-1.62c-6.92-1.917-13.455-3.727-17.952-8.364c-1.316-1.357-2.67-2.836-3.645-4.446
	c-0.022-0.037-0.045-0.073-0.068-0.109c-3.698-5.768-5.328-11.635-4.876-17.51c3.05,1.745,5.843,3.259,8.536,4.631
	c9.219,4.695,23.131,10.291,37.058,10.291c14.032,0,25.271-5.469,33.401-16.256C223.26,169.714,226.252,155.584,223.342,143.089z
	 M186.486,34.273c0.602-0.072,1.17-0.108,1.691-0.108c2.918,0,3.418,1.062,3.632,1.516c1.607,3.411-0.874,11.879-4.919,16.782
	c-6.884,8.345-19.937,13.141-38.866,14.297C156.176,54.268,170.572,36.163,186.486,34.273z M83.224,154.01l-0.271,0.444
	c-5.769,9.454-14.486,23.74-25.289,24.887c-0.291,0.031-0.604,0.047-0.929,0.047c-6.705,0-16.552-6.121-18.814-11.694
	c-1.145-2.822,0.748-6.663,1.979-8.701c2.407-3.988,5.869-7.242,8.103-8.817c3.518-2.48,7.97-3.738,13.233-3.738
	c2.654,0,5.521,0.32,8.521,0.95c4.797,1.008,9.656,2.496,14.737,4.518C84.068,152.617,83.645,153.319,83.224,154.01z
	 M130.854,295.308c-13.151,0-24.354-5.428-31.544-15.283c-4.797-6.576-1.204-15.377,0.567-18.86
	c2.696-5.303,9.303-13.702,16.038-13.158c9.205,0.745,10.189,16.671,11.375,23.368c0.468,2.643,0.91,5.14,1.43,7.49
	c1.195,5.413,2.16,10.922,2.881,16.438C131.352,295.306,131.103,295.308,130.854,295.308z M191.271,158.078
	c-2.744,5.718-9.515,10.619-16.847,12.195c-1.992,0.428-4.118,0.646-6.317,0.646c-5.508,0-11.635-1.301-19.28-4.094
	c-1.791-0.654-3.581-1.358-5.397-2.122c4.916-6.405,12.147-12.134,20.523-16.16c4.955-2.381,13.248-6.367,19.704-6.366
	c3.711,0,5.923,1.254,7.395,4.195C193.029,150.323,193.104,154.262,191.271,158.078z"/>
</svg>
