<?xml version="1.0" encoding="utf-8"?>
<!-- Generator: Adobe Illustrator 16.0.0, SVG Export Plug-In . SVG Version: 6.00 Build 0)  -->
<!DOCTYPE svg PUBLIC "-//W3C//DTD SVG 1.1//EN" "http://www.w3.org/Graphics/SVG/1.1/DTD/svg11.dtd">
<svg version="1.1" id="Õ_xBA__x2264__x201E__x5F_1"
	 xmlns="http://www.w3.org/2000/svg" xmlns:xlink="http://www.w3.org/1999/xlink" x="0px" y="0px" width="841.89px"
	 height="595.275px" viewBox="0 0 841.89 595.275" enable-background="new 0 0 841.89 595.275" xml:space="preserve">
<path opacity="0.7" fill="none" stroke="#29292B" stroke-miterlimit="10" d="M707.115,135.167c0,5.734,4.667,10.401,10.402,10.401
	c5.733,0,10.398-4.667,10.398-10.401s-4.665-10.401-10.398-10.401C711.782,124.767,707.115,129.433,707.115,135.167z
	 M722.369,135.167c0,2.677-2.176,4.854-4.852,4.854c-2.678,0-4.853-2.176-4.853-4.854s2.175-4.853,4.853-4.853
	C720.193,130.314,722.369,132.49,722.369,135.167z"/>
<path opacity="0.7" fill="none" stroke="#29292B" stroke-miterlimit="10" d="M21.742,18.471c-2.248,0-4.326,0.672-6.073,1.82v5.993
	c1.172-2.16,3.437-3.655,6.073-3.655c3.818,0,6.932,3.113,6.932,6.939c0,3.817-3.114,6.93-6.932,6.93
	c-2.636,0-4.9-1.487-6.073-3.655v5.993c1.747,1.148,3.825,1.819,6.073,1.819c6.115,0,11.089-4.974,11.089-11.087
	C32.831,23.445,27.856,18.471,21.742,18.471z"/>
<path opacity="0.7" fill="none" stroke="#29292B" stroke-miterlimit="10" d="M630.867,148.277c3.243,0,5.889-2.636,5.889-5.888
	c0-3.252-2.646-5.896-5.889-5.896c-2.889,0-5.28,2.078-5.791,4.82h-51.519c-0.509-2.742-2.902-4.82-5.781-4.82
	c-3.252,0-5.888,2.644-5.888,5.896c0,1.141,0.34,2.2,0.905,3.106c-2.767,2.766-12.148,12.155-12.794,12.802
	c-1.123,0-110.341,0-110.341,0s-8.224,8.217-8.96,8.953c-1.092,0-51.664,0-52.763,0c-0.72-0.719-7.538-7.537-7.538-7.537
	s-8.104,0-9.099,0c-0.525-0.526-3.89-3.891-5.654-5.653v-23.163h-8.337v-9.349c2.232-0.841,3.833-2.985,3.833-5.5
	c0-3.25-2.645-5.896-5.896-5.896c-2.88,0-5.273,2.079-5.783,4.812h-16.627v-5.33h-7.877V97.172h-48.719c0,0,0,31.219,0,33.741
	c-2.646,0-98.637,0-99.745,0c-0.728-0.735-8.889-8.896-8.889-8.896h-96.46l-8.015,8.022v6.632h-3.898v18.949h3.259v12.706h-5.564
	v18.949h10.167v-10.417c12.738,0,87.484,0,89.91,0c0,0.792,0,1.86,0,2.726c-2.766,0.485-4.877,2.887-4.877,5.782
	c0,3.251,2.653,5.896,5.896,5.896c3.251,0,5.896-2.645,5.896-5.896c0-2.644-1.771-4.869-4.181-5.604v-5.637H57.093v-5.799h-1.868
	v-12.706h4.181v-18.949h-3.542c0-1.892,0-4.853,0-5.5c0.671-0.671,5.742-5.75,6.414-6.422c1.116,0,93.08,0,94.197,0
	c0.728,0.728,8.888,8.896,8.888,8.896h103.61c0,0,0-31.218,0-33.741c2.499,0,40.753,0,43.252,0c0,1.577,0,6.882,0,9.729h-5.104
	v18.488h15.714v-10.417h16.79c0.655,2.225,2.58,3.891,4.949,4.166v9.025h-9.025v25.185h18.253l6.365,6.365c0,0,8.096,0,9.099,0
	c0.711,0.719,7.537,7.538,7.537,7.538h55.036c0,0,8.218-8.225,8.953-8.953c1.126,0,110.341,0,110.341,0l13.61-13.62
	c0.889,0.541,1.925,0.865,3.033,0.865c2.676,0,4.908-1.795,5.629-4.23h51.833C625.957,146.482,628.198,148.277,630.867,148.277z
	 M630.867,139.963c1.333,0,2.428,1.092,2.428,2.426c0,1.334-1.095,2.426-2.428,2.426c-1.343,0-2.435-1.091-2.435-2.426
	C628.433,141.056,629.524,139.963,630.867,139.963z M150.448,185.367c0,1.342-1.083,2.427-2.426,2.427
	c-1.334,0-2.426-1.084-2.426-2.427c0-1.334,1.092-2.426,2.426-2.426C149.365,182.941,150.448,184.033,150.448,185.367z
	 M345.246,118.476c-1.335,0-2.427-1.092-2.427-2.428c0-1.342,1.092-2.426,2.427-2.426c1.342,0,2.426,1.084,2.426,2.426
	C347.672,117.383,346.588,118.476,345.246,118.476z M567.776,144.815c-1.335,0-2.427-1.091-2.427-2.426
	c0-1.334,1.092-2.426,2.427-2.426c1.343,0,2.426,1.092,2.426,2.426C570.202,143.724,569.119,144.815,567.776,144.815z"/>
<path opacity="0.7" fill="none" stroke="#29292B" stroke-miterlimit="10" d="M463.446,205.82c-3.251,0-5.888,2.644-5.888,5.896
	c0,3.244,2.637,5.888,5.888,5.888c2.588,0,4.765-1.683,5.557-4.003c8.402,0,64.829,0,65.857,0
	c0.775,0.768,21.092,21.093,21.092,21.093l0.105-0.105c1.018,0.85,2.319,1.391,3.751,1.391c2.711,0,4.975-1.852,5.662-4.359
	c12.778,0,110.225,0,111.271,0c0.605,0.607,8.612,8.614,11.862,11.872c-0.769,0.995-1.245,2.225-1.245,3.575
	c0,3.251,2.645,5.896,5.896,5.896c3.253,0,5.896-2.644,5.896-5.896c0-3.251-2.643-5.896-5.896-5.896
	c-0.896,0-1.748,0.227-2.507,0.583l-12.866-12.867H565.577c-0.56-2.677-2.928-4.699-5.769-4.699c-2.846,0-5.233,2.031-5.774,4.715
	l-18.044-18.036h-66.736C468.842,208.02,466.407,205.82,463.446,205.82z M463.446,214.143c-1.335,0-2.426-1.093-2.426-2.427
	c0-1.342,1.091-2.434,2.426-2.434c1.342,0,2.427,1.092,2.427,2.434C465.873,213.05,464.788,214.143,463.446,214.143z
	 M695.682,247.067c0,1.335-1.095,2.427-2.428,2.427c-1.343,0-2.425-1.092-2.425-2.427c0-1.334,1.082-2.426,2.425-2.426
	C694.587,244.642,695.682,245.733,695.682,247.067z M559.809,227.657c1.335,0,2.428,1.092,2.428,2.426
	c0,1.335-1.093,2.428-2.428,2.428c-1.341,0-2.426-1.093-2.426-2.428C557.383,228.749,558.468,227.657,559.809,227.657z"/>
<path opacity="0.7" fill="none" stroke="#29292B" stroke-miterlimit="10" d="M391.693,203.046c0-3.252-2.645-5.896-5.887-5.896
	c-3.253,0-5.897,2.644-5.897,5.896c0,2.652,1.771,4.869,4.181,5.612v13.839c0,0,137.749,0,138.872,0
	c0.777,0.777,26.688,26.689,26.688,26.689h82.897c0.762,2.377,2.97,4.124,5.598,4.124c3.244,0,5.889-2.644,5.889-5.896
	c0-3.25-2.645-5.887-5.889-5.887c-2.919,0-5.337,2.135-5.8,4.925c-11.176,0-80.533,0-81.562,0
	c-0.775-0.776-26.689-26.689-26.689-26.689s-134.585,0-137.27,0c0-1.771,0-8.396,0-10.927
	C389.591,208.352,391.693,205.942,391.693,203.046z M638.146,244.989c1.333,0,2.429,1.084,2.429,2.426
	c0,1.335-1.096,2.427-2.429,2.427c-1.343,0-2.428-1.092-2.428-2.427C635.718,246.073,636.803,244.989,638.146,244.989z
	 M383.378,203.046c0-1.334,1.091-2.427,2.428-2.427c1.334,0,2.425,1.093,2.425,2.427c0,1.334-1.091,2.426-2.425,2.426
	C384.47,205.472,383.378,204.381,383.378,203.046z"/>
<path opacity="0.7" fill="none" stroke="#29292B" stroke-miterlimit="10" d="M515.5,155.16h17.161v-7.861h-16.88
	c-1.076-1.293-2.687-2.135-4.506-2.135c-3.24,0-5.889,2.644-5.889,5.888c0,3.251,2.648,5.896,5.889,5.896
	C512.933,156.947,514.422,156.259,515.5,155.16z M508.856,151.051c0-1.334,1.086-2.426,2.419-2.426c1.343,0,2.426,1.092,2.426,2.426
	c0,1.342-1.083,2.426-2.426,2.426C509.942,153.478,508.856,152.394,508.856,151.051z"/>
<path opacity="0.7" fill="none" stroke="#29292B" stroke-miterlimit="10" d="M559.115,18.989c3.25,0,5.895-2.637,5.895-5.888
	c0-3.251-2.645-5.896-5.895-5.896c-3.251,0-5.896,2.645-5.896,5.896C553.22,16.352,555.864,18.989,559.115,18.989z M559.115,10.675
	c1.333,0,2.425,1.084,2.425,2.427c0,1.334-1.092,2.426-2.425,2.426c-1.344,0-2.426-1.091-2.426-2.426
	C556.689,11.759,557.771,10.675,559.115,10.675z"/>
<path opacity="0.7" fill="none" stroke="#29292B" stroke-miterlimit="10" d="M185.459,99.064c0-3.251-2.645-5.896-5.896-5.896
	c-3.243,0-5.888,2.645-5.888,5.896c0,3.244,2.645,5.888,5.888,5.888C182.815,104.952,185.459,102.308,185.459,99.064z
	 M177.137,99.064c0-1.342,1.092-2.426,2.426-2.426c1.343,0,2.426,1.083,2.426,2.426c0,1.334-1.083,2.426-2.426,2.426
	C178.229,101.491,177.137,100.399,177.137,99.064z"/>
<path opacity="0.7" fill="none" stroke="#29292B" stroke-miterlimit="10" d="M44.04,209.629c0-3.242-2.645-5.887-5.896-5.887
	s-5.887,2.645-5.887,5.887c0,1.918,0.93,3.608,2.345,4.684h-1.537v18.95H43.23v-18.95h-1.544
	C43.102,213.237,44.04,211.547,44.04,209.629z M38.144,207.204c1.342,0,2.426,1.091,2.426,2.425c0,1.343-1.084,2.428-2.426,2.428
	c-1.334,0-2.426-1.084-2.426-2.428C35.718,208.295,36.81,207.204,38.144,207.204z"/>
<path opacity="0.7" fill="none" stroke="#29292B" stroke-miterlimit="10" d="M59.98,209.629c0-3.242-2.644-5.887-5.887-5.887
	c-3.251,0-5.896,2.645-5.896,5.887c0,1.918,0.93,3.608,2.353,4.684h-1.771v18.95h10.166v-18.95h-1.318
	C59.05,213.237,59.98,211.547,59.98,209.629z M54.093,207.204c1.334,0,2.426,1.091,2.426,2.425c0,1.343-1.092,2.428-2.426,2.428
	c-1.343,0-2.427-1.084-2.427-2.428C51.666,208.295,52.75,207.204,54.093,207.204z"/>
<path opacity="0.7" fill="none" stroke="#29292B" stroke-miterlimit="10" d="M75.234,209.629c0-3.242-2.645-5.887-5.896-5.887
	c-3.243,0-5.887,2.645-5.887,5.887c0,1.918,0.93,3.608,2.353,4.684H64.72v18.95h10.166v-18.95h-2.005
	C74.303,213.237,75.234,211.547,75.234,209.629z M69.337,207.204c1.342,0,2.426,1.091,2.426,2.425c0,1.343-1.084,2.428-2.426,2.428
	c-1.334,0-2.426-1.084-2.426-2.428C66.912,208.295,68.003,207.204,69.337,207.204z"/>
<path opacity="0.7" fill="none" stroke="#29292B" stroke-miterlimit="10" d="M193.426,202.699c0-3.243-2.636-5.888-5.889-5.888
	c-3.251,0-5.896,2.646-5.896,5.888c0,3.251,2.645,5.895,5.896,5.895C190.79,208.594,193.426,205.95,193.426,202.699z
	 M185.112,202.699c0-1.334,1.092-2.426,2.425-2.426c1.334,0,2.427,1.092,2.427,2.426c0,1.343-1.093,2.426-2.427,2.426
	C186.204,205.125,185.112,204.042,185.112,202.699z"/>
<path opacity="0.7" fill="none" stroke="#29292B" stroke-miterlimit="10" d="M304.347,229.048c0-3.251-2.644-5.896-5.896-5.896
	c-3.033,0-5.507,2.321-5.823,5.272h-19.887c-0.259-2.49-2.07-4.52-4.457-5.094v-4.837h-12.463v-2.798h-10.167v18.027h10.167v-12.495
	c2.434,0,8.046,0,9.721,0c0,0.639,0,1.416,0,2.104c-2.587,0.614-4.52,2.936-4.52,5.717c0,2.604,1.714,4.796,4.059,5.564
	c0,0.519,0,1.124,0,1.674c-2.636,0-112.013,0-114.649,0c0-0.849,0-2.055,0-3.024h2.79v-18.95h-2.911v-13.62l-13.352-13.353
	c0.412-0.809,0.663-1.698,0.663-2.66c0-3.251-2.637-5.896-5.888-5.896c-2.96,0-5.395,2.2-5.808,5.046H98.72
	c-0.419-2.847-2.846-5.046-5.806-5.046c-3.252,0-5.897,2.645-5.897,5.896c0,3.242,2.645,5.888,5.897,5.888
	c2.58,0,4.763-1.683,5.547-4.004h27.717c0.792,2.322,2.967,4.004,5.556,4.004c1.294,0,2.474-0.429,3.453-1.141
	c2.621,2.628,11.743,11.751,12.39,12.398c0,0.801,0,8.799,0,12.487h-4.521v18.95h4.643v5.758h120.117v-4.173
	c2.103-0.332,3.834-1.755,4.577-3.688h20.583c0.85,2.208,2.977,3.777,5.475,3.777C301.703,234.937,304.347,232.292,304.347,229.048z
	 M92.914,187.106c-1.343,0-2.427-1.092-2.427-2.426c0-1.343,1.084-2.427,2.427-2.427c1.334,0,2.426,1.083,2.426,2.427
	C95.34,186.014,94.248,187.106,92.914,187.106z M131.734,187.106c-1.344,0-2.427-1.092-2.427-2.426c0-1.343,1.083-2.427,2.427-2.427
	c1.333,0,2.426,1.083,2.426,2.427C134.16,186.014,133.068,187.106,131.734,187.106z M266.918,231.466
	c-1.343,0-2.434-1.083-2.434-2.418c0-1.342,1.091-2.434,2.434-2.434c1.334,0,2.418,1.092,2.418,2.434
	C269.336,230.383,268.252,231.466,266.918,231.466z M298.451,231.466c-1.333,0-2.417-1.083-2.417-2.418
	c0-1.342,1.084-2.434,2.417-2.434c1.344,0,2.435,1.092,2.435,2.434C300.886,230.383,299.794,231.466,298.451,231.466z"/>
<path opacity="0.7" fill="none" stroke="#29292B" stroke-miterlimit="10" d="M220.123,302.176c-3.252,0-5.896,2.644-5.896,5.896
	c0,3.251,2.644,5.896,5.896,5.896c3.242,0,5.887-2.645,5.887-5.896c0-1.643-0.671-3.123-1.755-4.189l13.822-15.165h1.343v-1.471
	l0.081-0.089l-0.081-0.073v-26.56h-8.089v28.193h3.041l-12.535,13.749C221.295,302.297,220.721,302.176,220.123,302.176z
	 M220.123,310.498c-1.343,0-2.427-1.091-2.427-2.426s1.084-2.428,2.427-2.428c1.334,0,2.426,1.093,2.426,2.428
	S221.457,310.498,220.123,310.498z"/>
<path opacity="0.7" fill="none" stroke="#29292B" stroke-miterlimit="10" d="M36.235,290.545h82.85
	c0.615,2.597,2.936,4.53,5.718,4.53c3.243,0,5.888-2.645,5.888-5.896c0-3.244-2.645-5.888-5.888-5.888
	c-2.782,0-5.095,1.932-5.718,4.521h-82.85c-0.623-2.588-2.936-4.521-5.718-4.521c-3.244,0-5.887,2.644-5.887,5.888
	c0,3.251,2.644,5.896,5.887,5.896C33.299,295.076,35.612,293.143,36.235,290.545z M124.803,286.753c1.334,0,2.426,1.091,2.426,2.427
	c0,1.342-1.092,2.426-2.426,2.426c-1.342,0-2.426-1.084-2.426-2.426C122.376,287.844,123.46,286.753,124.803,286.753z
	 M28.091,289.18c0-1.335,1.092-2.427,2.426-2.427c1.343,0,2.426,1.091,2.426,2.427c0,1.342-1.083,2.426-2.426,2.426
	C29.184,291.606,28.091,290.521,28.091,289.18z"/>
<path opacity="0.7" fill="none" stroke="#29292B" stroke-miterlimit="10" d="M83.896,377.05c0-3.25-2.645-5.896-5.888-5.896
	c-3.251,0-5.896,2.646-5.896,5.896c0,3.254,2.645,5.889,5.896,5.889C81.251,382.938,83.896,380.304,83.896,377.05z M75.581,377.05
	c0-1.342,1.084-2.425,2.426-2.425c1.334,0,2.426,1.083,2.426,2.425c0,1.334-1.092,2.426-2.426,2.426
	C76.666,379.476,75.581,378.384,75.581,377.05z"/>
<path opacity="0.7" fill="none" stroke="#29292B" stroke-miterlimit="10" d="M55.823,411.019c0,3.251,2.645,5.889,5.896,5.889
	c3.244,0,5.888-2.638,5.888-5.889c0-3.25-2.644-5.896-5.888-5.896C58.468,405.123,55.823,407.769,55.823,411.019z M64.137,411.019
	c0,1.336-1.083,2.426-2.418,2.426c-1.342,0-2.435-1.09-2.435-2.426c0-1.342,1.092-2.426,2.435-2.426
	C63.054,408.593,64.137,409.677,64.137,411.019z"/>
<path opacity="0.7" fill="none" stroke="#29292B" stroke-miterlimit="10" d="M156.344,452.266c3.243,0,5.889-2.645,5.889-5.895
	c0-3.244-2.646-5.889-5.889-5.889c-2.838,0-5.216,2.021-5.774,4.7H36.292c-0.558-2.679-2.927-4.7-5.774-4.7
	c-3.244,0-5.887,2.645-5.887,5.889c0,3.25,2.644,5.895,5.887,5.895c2.718,0,4.982-1.85,5.662-4.351h114.503
	C151.362,450.416,153.635,452.266,156.344,452.266z M156.344,443.942c1.334,0,2.427,1.092,2.427,2.429
	c0,1.342-1.092,2.434-2.427,2.434c-1.343,0-2.426-1.092-2.426-2.434C153.917,445.034,155.001,443.942,156.344,443.942z
	 M30.517,448.805c-1.333,0-2.426-1.092-2.426-2.434c0-1.337,1.092-2.429,2.426-2.429c1.343,0,2.426,1.092,2.426,2.429
	C32.943,447.713,31.86,448.805,30.517,448.805z"/>
<path opacity="0.7" fill="none" stroke="#29292B" stroke-miterlimit="10" d="M72.111,479.997c0,3.251,2.645,5.889,5.896,5.889
	c3.244,0,5.888-2.638,5.888-5.889c0-3.25-2.645-5.896-5.888-5.896C74.756,474.102,72.111,476.747,72.111,479.997z M80.434,479.997
	c0,1.343-1.092,2.428-2.426,2.428c-1.342,0-2.426-1.085-2.426-2.428c0-1.342,1.084-2.425,2.426-2.425
	C79.342,477.572,80.434,478.655,80.434,479.997z"/>
<path opacity="0.7" fill="none" stroke="#29292B" stroke-miterlimit="10" d="M62.059,569.771c-2.798,0-5.136,1.966-5.735,4.586
	H15.669v2.732h40.697c0.638,2.556,2.943,4.466,5.693,4.466c3.251,0,5.896-2.646,5.896-5.889
	C67.955,572.416,65.31,569.771,62.059,569.771z M62.059,578.094c-1.334,0-2.426-1.092-2.426-2.428c0-1.343,1.092-2.426,2.426-2.426
	c1.342,0,2.426,1.083,2.426,2.426C64.485,577.002,63.401,578.094,62.059,578.094z"/>
<path opacity="0.7" fill="none" stroke="#29292B" stroke-miterlimit="10" d="M91.523,592.304c0-1.336,1.091-2.429,2.426-2.429
	c1.342,0,2.426,1.093,2.426,2.429c0,0.81-0.406,1.53-1.022,1.972h4.135c0.224-0.62,0.357-1.28,0.357-1.972
	c0-3.254-2.645-5.896-5.896-5.896c-2.96,0-5.387,2.198-5.808,5.043H15.669v2.735H88.4c0.011,0.032,0.027,0.058,0.038,0.089h4.111
	C91.93,593.834,91.523,593.113,91.523,592.304z"/>
<path opacity="0.7" fill="none" stroke="#29292B" stroke-miterlimit="10" d="M198.44,523.67c0,3.253,2.644,5.889,5.887,5.889
	c3.251,0,5.896-2.636,5.896-5.889c0-2.773-1.941-5.094-4.521-5.717v-6.931h3.25v-28.193h-9.244v28.193h3.251v6.931
	C200.373,518.576,198.44,520.896,198.44,523.67z M206.754,523.67c0,1.336-1.084,2.428-2.426,2.428c-1.334,0-2.426-1.092-2.426-2.428
	c0-1.34,1.092-2.425,2.426-2.425C205.67,521.245,206.754,522.33,206.754,523.67z"/>
<path opacity="0.7" fill="none" stroke="#29292B" stroke-miterlimit="10" d="M214.187,523.67c0,3.253,2.644,5.889,5.896,5.889
	c3.252,0,5.896-2.636,5.896-5.889c0-2.773-1.942-5.094-4.529-5.717v-6.931h3.25v-28.193h-9.236v28.193h3.252v6.931
	C216.127,518.576,214.187,520.896,214.187,523.67z M222.508,523.67c0,1.336-1.092,2.428-2.426,2.428
	c-1.334,0-2.426-1.092-2.426-2.428c0-1.34,1.092-2.425,2.426-2.425C221.416,521.245,222.508,522.33,222.508,523.67z"/>
<path opacity="0.7" fill="none" stroke="#29292B" stroke-miterlimit="10" d="M282.51,555.562c0.389,0,0.761-0.05,1.125-0.115
	l21.998,21.992h262.37c0,0,6.332-6.332,7.046-7.053c1.105,0,47.497,0,47.497,0v-2.735h-48.631c0,0-6.334,6.342-7.054,7.052
	c-1.114,0-258.972,0-260.096,0c-0.672-0.67-16.418-16.408-20.518-20.518c1.301-1.083,2.159-2.692,2.159-4.521
	c0-3.251-2.644-5.886-5.896-5.886c-3.251,0-5.896,2.635-5.896,5.886C276.614,552.916,279.259,555.562,282.51,555.562z
	 M282.51,547.238c1.343,0,2.427,1.092,2.427,2.425c0,1.345-1.084,2.429-2.427,2.429c-1.334,0-2.425-1.084-2.425-2.429
	C280.085,548.33,281.176,547.238,282.51,547.238z"/>
<path opacity="0.7" fill="none" stroke="#29292B" stroke-miterlimit="10" d="M425.321,547.934c3.243,0,5.887-2.645,5.887-5.889
	c0-3.249-2.644-5.896-5.887-5.896c-1.707,0-3.234,0.738-4.311,1.901l-7.95-7.951c0,0-81.264,0-82.38,0
	c-0.736-0.734-13.37-13.36-14.105-14.104c0-0.622,0-3.233,0-4.973h3.024v-28.193h-9.244v28.193h3.485v6.112l15.706,15.708
	c0,0,81.265,0,82.381,0c0.631,0.622,6.211,6.212,7.715,7.708c-0.128,0.478-0.219,0.969-0.219,1.494
	C419.425,545.289,422.07,547.934,425.321,547.934z M425.321,539.61c1.334,0,2.425,1.093,2.425,2.435
	c0,1.334-1.091,2.419-2.425,2.419c-1.342,0-2.427-1.085-2.427-2.419C422.895,540.703,423.979,539.61,425.321,539.61z"/>
<path opacity="0.7" fill="none" stroke="#29292B" stroke-miterlimit="10" d="M439.182,524.019c0-3.251-2.643-5.896-5.896-5.896
	c-3.073,0-5.58,2.377-5.839,5.395c-9.615,0-86.132,0-87.176,0c-0.702-0.703-7.747-7.738-8.443-8.442c0-0.642,0-2.798,0-4.053h3.251
	v-28.193h-9.236v28.193h3.252v5.185l10.044,10.043h88.704c0.881,2.145,2.984,3.656,5.442,3.656
	C436.539,529.906,439.182,527.262,439.182,524.019z M430.861,524.019c0-1.343,1.091-2.426,2.425-2.426
	c1.344,0,2.428,1.083,2.428,2.426c0,1.335-1.084,2.427-2.428,2.427C431.952,526.445,430.861,525.354,430.861,524.019z"/>
<path opacity="0.7" fill="none" stroke="#29292B" stroke-miterlimit="10" d="M464.49,513.27c3.251,0,5.887-2.645,5.887-5.887
	c0-3.25-2.636-5.896-5.887-5.896c-2.84,0-5.217,2.021-5.774,4.699c-5.663,0-24.402,0-25.324,0c-0.721-0.728-8.088-8.087-8.088-8.087
	h-58.335v-15.271h-9.244v28.193h9.244v-10.19c9.349,0,56.201,0,57.205,0c0.728,0.728,8.085,8.088,8.085,8.088h26.561
	C459.507,511.419,461.771,513.27,464.49,513.27z M464.49,504.948c1.334,0,2.426,1.093,2.426,2.435c0,1.334-1.092,2.426-2.426,2.426
	c-1.343,0-2.428-1.092-2.428-2.426C462.062,506.041,463.147,504.948,464.49,504.948z"/>
<path opacity="0.7" fill="none" stroke="#29292B" stroke-miterlimit="10" d="M504.345,484.157c-3.243,0-5.888,2.643-5.888,5.893
	c0,3.243,2.645,5.888,5.888,5.888c3.254,0,5.896-2.645,5.896-5.888C510.24,486.8,507.599,484.157,504.345,484.157z M504.345,492.478
	c-1.332,0-2.425-1.092-2.425-2.428c0-1.341,1.093-2.425,2.425-2.425c1.343,0,2.429,1.084,2.429,2.425
	C506.773,491.386,505.688,492.478,504.345,492.478z"/>
<path opacity="0.7" fill="none" stroke="#29292B" stroke-miterlimit="10" d="M345.593,431.811c-2.709,0-4.974,1.86-5.661,4.359
	c-6.034,0-40.018,0-41.029,0c-0.614-0.623-8.467-8.477-11.298-11.298c0.712-0.978,1.149-2.158,1.149-3.452
	c0-3.251-2.645-5.898-5.896-5.898c-3.251,0-5.896,2.647-5.896,5.898c0,3.243,2.644,5.885,5.896,5.885
	c0.962,0,1.852-0.248,2.661-0.66l12.252,12.261h42.055c0.55,2.676,2.929,4.699,5.767,4.699c3.251,0,5.896-2.646,5.896-5.896
	C351.489,434.455,348.845,431.811,345.593,431.811z M282.858,423.845c-1.334,0-2.426-1.092-2.426-2.425
	c0-1.344,1.092-2.429,2.426-2.429c1.334,0,2.426,1.085,2.426,2.429C285.284,422.753,284.192,423.845,282.858,423.845z
	 M345.593,440.134c-1.334,0-2.426-1.093-2.426-2.426c0-1.336,1.092-2.428,2.426-2.428c1.343,0,2.427,1.092,2.427,2.428
	C348.02,439.041,346.936,440.134,345.593,440.134z"/>
<path opacity="0.7" fill="none" stroke="#29292B" stroke-miterlimit="10" d="M235.836,462.894c3.244,0,5.889-2.646,5.889-5.889
	c0-3.251-2.645-5.896-5.889-5.896c-2.806,0-5.144,1.965-5.742,4.593h-19.556c0,0-13.684,13.678-14.436,14.436
	c-0.364,0-1.061,0-1.747,0v-2.797h-25.419v8.09h25.419v-2.558h2.878c0,0,13.685-13.684,14.437-14.444c0.938,0,15.083,0,18.463,0
	C230.782,460.992,233.079,462.894,235.836,462.894z M235.836,454.579c1.336,0,2.428,1.083,2.428,2.426
	c0,1.335-1.092,2.428-2.428,2.428c-1.342,0-2.425-1.093-2.425-2.428C233.412,455.662,234.494,454.579,235.836,454.579z"/>
<path opacity="0.7" fill="none" stroke="#29292B" stroke-miterlimit="10" d="M266.797,445.221c3.251,0,5.895-2.645,5.895-5.896
	s-2.644-5.897-5.895-5.897c-2.84,0-5.217,2.021-5.767,4.7h-48.413c0,0-15.528,15.538-16.289,16.297c-0.413,0-1.237,0-1.973,0v-2.562
	h-25.419v8.085h25.419v-2.787h3.105c0,0,15.529-15.531,16.296-16.292c1.011,0,40.859,0,47.377,0
	C261.823,443.37,264.087,445.221,266.797,445.221z M266.797,436.899c1.342,0,2.426,1.093,2.426,2.426
	c0,1.343-1.084,2.426-2.426,2.426c-1.334,0-2.426-1.083-2.426-2.426C264.371,437.992,265.462,436.899,266.797,436.899z"/>
<path opacity="0.7" fill="none" stroke="#29292B" stroke-miterlimit="10" d="M299.649,309.924v-21.206h2.627v-28.193h-8.086v28.193
	h2.724v21.318c-2.394,0.657-4.173,2.767-4.318,5.339h-34.728c-0.17-3.099-2.726-5.572-5.855-5.572c-3.252,0-5.896,2.646-5.896,5.896
	c0,3.25,2.645,5.885,5.896,5.885c2.385,0,4.44-1.428,5.362-3.483h35.715c0.921,2.056,2.976,3.483,5.361,3.483
	c2.426,0,4.513-1.471,5.419-3.565c6.607,0,48.372,0,49.391,0c0.453,0.454,2.256,2.257,3.396,3.396
	c-0.639,0.939-1.012,2.08-1.012,3.293c0,3.251,2.646,5.896,5.897,5.896c3.243,0,5.887-2.645,5.887-5.896
	c0-3.242-2.645-5.888-5.887-5.888c-1.044,0-1.998,0.291-2.848,0.761l-4.302-4.295h-50.085
	C304.12,312.634,302.196,310.458,299.649,309.924z M252.013,318.125c-1.343,0-2.427-1.092-2.427-2.426
	c0-1.335,1.084-2.427,2.427-2.427c1.334,0,2.427,1.092,2.427,2.427C254.439,317.033,253.347,318.125,252.013,318.125z
	 M298.451,318.125c-1.333,0-2.417-1.092-2.417-2.426c0-1.335,1.084-2.427,2.417-2.427c1.344,0,2.435,1.092,2.435,2.427
	C300.886,317.033,299.794,318.125,298.451,318.125z M361.542,322.281c1.334,0,2.426,1.092,2.426,2.427
	c0,1.344-1.092,2.426-2.426,2.426c-1.343,0-2.426-1.082-2.426-2.426C359.116,323.373,360.2,322.281,361.542,322.281z"/>
<path opacity="0.7" fill="none" stroke="#29292B" stroke-miterlimit="10" d="M28.091,149.669c0-3.252-2.645-5.896-5.888-5.896
	c-3.251,0-5.896,2.644-5.896,5.896c0,3.251,2.645,5.888,5.896,5.888C25.446,155.557,28.091,152.92,28.091,149.669z M19.777,149.669
	c0-1.334,1.084-2.426,2.427-2.426c1.334,0,2.426,1.092,2.426,2.426c0,1.333-1.092,2.426-2.426,2.426
	C20.861,152.095,19.777,151.002,19.777,149.669z"/>
<path opacity="0.7" fill="none" stroke="#29292B" stroke-miterlimit="10" d="M351.489,333.702c0-3.244-2.645-5.889-5.896-5.889
	c-2.774,0-5.095,1.933-5.718,4.52h-51.995c-0.623-2.587-2.936-4.52-5.718-4.52c-3.243,0-5.887,2.645-5.887,5.889
	c0,3.251,2.644,5.896,5.887,5.896c2.782,0,5.095-1.935,5.718-4.529h51.995c0.541,2.264,2.386,4.019,4.699,4.422v28.278h27.021v1.869
	h24.95v-8.32h-24.95v3.711c-6.301,0-22.298,0-24.288,0c0-2.226,0-21.04,0-25.715C349.718,338.57,351.489,336.354,351.489,333.702z
	 M282.163,336.128c-1.334,0-2.426-1.082-2.426-2.426c0-1.335,1.092-2.428,2.426-2.428c1.342,0,2.427,1.093,2.427,2.428
	C284.589,335.046,283.505,336.128,282.163,336.128z M343.167,333.702c0-1.335,1.092-2.428,2.426-2.428
	c1.343,0,2.427,1.093,2.427,2.428c0,1.344-1.084,2.426-2.427,2.426C344.259,336.128,343.167,335.046,343.167,333.702z"/>
<path opacity="0.7" fill="none" stroke="#29292B" stroke-miterlimit="10" d="M322.026,383.287c3.251,0,5.896-2.645,5.896-5.889
	c0-3.253-2.645-5.895-5.896-5.895c-3.041,0-5.516,2.319-5.831,5.279c-16.216,0-155.379,0-157.911,0c0-0.832,0-1.925,0-2.757
	c2.475-0.703,4.294-2.952,4.294-5.646c0-3.243-2.644-5.888-5.887-5.888c-2.887,0-5.281,2.079-5.791,4.812h-35.917
	c-0.509-2.733-2.903-4.812-5.783-4.812c-3.25,0-5.896,2.645-5.896,5.888c0,3.251,2.645,5.896,5.896,5.896
	c2.669,0,4.901-1.795,5.629-4.238h36.232c0.615,2.087,2.329,3.694,4.489,4.124v5.354h79.437c-3.065,0.202-5.509,2.735-5.509,5.854
	c0,3.246,2.645,5.889,5.888,5.889c3.252,0,5.896-2.643,5.896-5.889c0-3.119-2.442-5.652-5.508-5.854h80.787
	C317.4,381.718,319.527,383.287,322.026,383.287z M322.026,374.974c1.334,0,2.426,1.082,2.426,2.425
	c0,1.336-1.092,2.426-2.426,2.426c-1.334,0-2.426-1.09-2.426-2.426C319.6,376.056,320.692,374.974,322.026,374.974z
	 M109.202,370.813c-1.334,0-2.426-1.09-2.426-2.433c0-1.335,1.092-2.418,2.426-2.418c1.335,0,2.427,1.083,2.427,2.418
	C111.628,369.724,110.537,370.813,109.202,370.813z M154.266,368.381c0-1.335,1.084-2.418,2.426-2.418
	c1.334,0,2.426,1.083,2.426,2.418c0,1.343-1.092,2.433-2.426,2.433C155.35,370.813,154.266,369.724,154.266,368.381z
	 M237.794,385.371c0,1.335-1.084,2.421-2.426,2.421c-1.334,0-2.426-1.086-2.426-2.421c0-1.34,1.092-2.433,2.426-2.433
	C236.71,382.938,237.794,384.031,237.794,385.371z"/>
<path opacity="0.7" fill="none" stroke="#29292B" stroke-miterlimit="10" d="M438.834,351.405c0-3.25-2.645-5.896-5.886-5.896
	c-3.253,0-5.896,2.646-5.896,5.896c0,3.241,2.643,5.889,5.896,5.889C436.189,357.294,438.834,354.646,438.834,351.405z
	 M430.52,351.405c0-1.342,1.086-2.435,2.429-2.435c1.332,0,2.425,1.093,2.425,2.435c0,1.334-1.093,2.426-2.425,2.426
	C431.605,353.831,430.52,352.739,430.52,351.405z"/>
<path opacity="0.7" fill="none" stroke="#29292B" stroke-miterlimit="10" d="M488.057,340.478c2.773,0,5.096-1.932,5.719-4.52
	h59.968c0.623,2.588,2.937,4.52,5.72,4.52c3.25,0,5.887-2.635,5.887-5.886c0-3.254-2.637-5.898-5.887-5.898
	c-2.783,0-5.097,1.944-5.72,4.522h-59.968c-0.623-2.578-2.945-4.522-5.719-4.522c-3.251,0-5.896,2.645-5.896,5.898
	C482.161,337.843,484.806,340.478,488.057,340.478z M559.463,332.163c1.333,0,2.426,1.084,2.426,2.429
	c0,1.334-1.093,2.426-2.426,2.426c-1.346,0-2.428-1.092-2.428-2.426C557.035,333.247,558.117,332.163,559.463,332.163z
	 M488.057,332.163c1.335,0,2.428,1.084,2.428,2.429c0,1.334-1.093,2.426-2.428,2.426c-1.334,0-2.426-1.092-2.426-2.426
	C485.631,333.247,486.723,332.163,488.057,332.163z"/>
<path opacity="0.7" fill="none" stroke="#29292B" stroke-miterlimit="10" d="M576.445,322.629c3.254,0,5.889-2.645,5.889-5.896
	c0-3.243-2.635-5.887-5.889-5.887c-3.251,0-5.896,2.644-5.896,5.887C570.55,319.984,573.194,322.629,576.445,322.629z
	 M576.445,314.307c1.334,0,2.426,1.092,2.426,2.427c0,1.343-1.092,2.436-2.426,2.436c-1.342,0-2.426-1.093-2.426-2.436
	C574.02,315.398,575.104,314.307,576.445,314.307z"/>
<path opacity="0.7" fill="none" stroke="#29292B" stroke-miterlimit="10" d="M607.292,322.629c3.251,0,5.896-2.645,5.896-5.896
	c0-3.243-2.645-5.887-5.896-5.887s-5.889,2.644-5.889,5.887C601.403,319.984,604.041,322.629,607.292,322.629z M607.292,314.307
	c1.344,0,2.426,1.092,2.426,2.427c0,1.343-1.082,2.436-2.426,2.436c-1.335,0-2.428-1.093-2.428-2.436
	C604.864,315.398,605.957,314.307,607.292,314.307z"/>
<path opacity="0.7" fill="none" stroke="#29292B" stroke-miterlimit="10" d="M550.453,489.355c0-3.25-2.646-5.896-5.896-5.896
	c-3.25,0-5.896,2.646-5.896,5.896c0,3.244,2.646,5.896,5.896,5.896C547.808,495.251,550.453,492.6,550.453,489.355z
	 M544.557,491.781c-1.336,0-2.425-1.092-2.425-2.426c0-1.335,1.089-2.425,2.425-2.425c1.333,0,2.426,1.09,2.426,2.425
	C546.982,490.689,545.89,491.781,544.557,491.781z"/>
<path opacity="0.7" fill="none" stroke="#29292B" stroke-miterlimit="10" d="M591.699,485.199c-3.251,0-5.897,2.645-5.897,5.886
	c0,3.253,2.646,5.898,5.897,5.898c3.242,0,5.887-2.646,5.887-5.898C597.586,487.844,594.941,485.199,591.699,485.199z
	 M591.699,493.513c-1.342,0-2.435-1.085-2.435-2.428c0-1.333,1.093-2.423,2.435-2.423c1.333,0,2.419,1.09,2.419,2.423
	C594.118,492.428,593.032,493.513,591.699,493.513z"/>
<path opacity="0.7" fill="none" stroke="#29292B" stroke-miterlimit="10" d="M569.863,542.384c0,3.254,2.636,5.898,5.886,5.898
	c3.254,0,5.898-2.645,5.898-5.898c0-3.24-2.645-5.885-5.898-5.885C572.499,536.499,569.863,539.144,569.863,542.384z
	 M575.749,539.959c1.336,0,2.429,1.092,2.429,2.425c0,1.346-1.093,2.429-2.429,2.429c-1.333,0-2.425-1.083-2.425-2.429
	C573.324,541.051,574.416,539.959,575.749,539.959z"/>
<path opacity="0.7" fill="none" stroke="#29292B" stroke-miterlimit="10" d="M607.638,577.973c-2.754,0-5.054,1.908-5.692,4.471
	c-18.788,0-308.646,0-309.738,0c-0.67-0.673-16.005-16.005-20.088-20.09c0.646-0.946,1.035-2.095,1.035-3.332
	c0-3.243-2.645-5.888-5.896-5.888c-3.244,0-5.888,2.645-5.888,5.888c0,3.261,2.645,5.896,5.888,5.896
	c1.027,0,1.973-0.283,2.814-0.744l21.004,21.004h310.829c0.6,2.621,2.937,4.579,5.733,4.579c3.254,0,5.898-2.638,5.898-5.889
	C613.536,580.615,610.892,577.973,607.638,577.973z M267.258,561.457c-1.334,0-2.427-1.093-2.427-2.436
	c0-1.336,1.093-2.418,2.427-2.418c1.342,0,2.426,1.082,2.426,2.418C269.684,560.364,268.6,561.457,267.258,561.457z
	 M607.638,586.293c-1.333,0-2.426-1.092-2.426-2.426c0-1.342,1.093-2.427,2.426-2.427c1.346,0,2.429,1.085,2.429,2.427
	C610.066,585.201,608.983,586.293,607.638,586.293z"/>
<path opacity="0.7" fill="none" stroke="#29292B" stroke-miterlimit="10" d="M622.892,577.973c-3.251,0-5.896,2.643-5.896,5.895
	c0,3.251,2.645,5.889,5.896,5.889s5.889-2.638,5.889-5.889C628.78,580.615,626.143,577.973,622.892,577.973z M622.892,586.293
	c-1.343,0-2.426-1.092-2.426-2.426c0-1.342,1.083-2.427,2.426-2.427c1.335,0,2.428,1.085,2.428,2.427
	C625.319,585.201,624.227,586.293,622.892,586.293z"/>
<path opacity="0.7" fill="none" stroke="#29292B" stroke-miterlimit="10" d="M644.383,421.42c0-3.251-2.646-5.898-5.898-5.898
	c-3.241,0-5.886,2.647-5.886,5.898c0,3.243,2.645,5.885,5.886,5.885C641.737,427.305,644.383,424.663,644.383,421.42z
	 M636.059,421.42c0-1.344,1.093-2.429,2.426-2.429c1.342,0,2.436,1.085,2.436,2.429c0,1.333-1.094,2.425-2.436,2.425
	C637.151,423.845,636.059,422.753,636.059,421.42z"/>
<path opacity="0.7" fill="none" stroke="#29292B" stroke-miterlimit="10" d="M754.953,593.863c0-1.343,1.086-2.426,2.426-2.426
	c1.336,0,2.429,1.083,2.429,2.426c0,0.143-0.021,0.276-0.043,0.412h3.467c0.013-0.139,0.039-0.272,0.039-0.412
	c0-3.251-2.645-5.896-5.892-5.896c-3.25,0-5.896,2.645-5.896,5.896c0,0.14,0.027,0.273,0.039,0.412h3.477
	C754.976,594.14,754.953,594.006,754.953,593.863z"/>
<path opacity="0.7" fill="none" stroke="#29292B" stroke-miterlimit="10" d="M691.522,593.863c0-1.343,1.085-2.426,2.428-2.426
	c1.333,0,2.426,1.083,2.426,2.426c0,0.143-0.021,0.276-0.043,0.412h3.468c0.012-0.139,0.036-0.272,0.036-0.412
	c0-3.251-2.636-5.896-5.887-5.896s-5.896,2.645-5.896,5.896c0,0.14,0.025,0.273,0.038,0.412h3.475
	C691.543,594.14,691.522,594.006,691.522,593.863z"/>
<path opacity="0.7" fill="none" stroke="#29292B" stroke-miterlimit="10" d="M828.092,561.974c-3.017,0-5.485,2.29-5.824,5.216
	h-9.43v-9.721h-18.366v20.098h18.366v-7.644h9.752c0.835,2.232,2.979,3.835,5.502,3.835c3.251,0,5.887-2.645,5.887-5.897
	C833.979,564.619,831.343,561.974,828.092,561.974z M828.092,570.288c-1.343,0-2.428-1.085-2.428-2.428
	c0-1.333,1.085-2.426,2.428-2.426c1.333,0,2.426,1.093,2.426,2.426C830.518,569.203,829.425,570.288,828.092,570.288z"/>
<path opacity="0.7" fill="none" stroke="#29292B" stroke-miterlimit="10" d="M828.092,501.657c-2.692,0-4.941,1.826-5.647,4.293
	h-9.606v-9.485h-18.366v20.099h18.366v-7.878h9.471c0.534,2.71,2.919,4.763,5.783,4.763c3.251,0,5.887-2.646,5.887-5.896
	C833.979,504.302,831.343,501.657,828.092,501.657z M828.092,509.979c-1.343,0-2.428-1.093-2.428-2.426
	c0-1.343,1.085-2.426,2.428-2.426c1.333,0,2.426,1.083,2.426,2.426C830.518,508.886,829.425,509.979,828.092,509.979z"/>
<path opacity="0.7" fill="none" stroke="#29292B" stroke-miterlimit="10" d="M828.092,441.694c-2.905,0-5.307,2.103-5.793,4.868
	h-9.461v-9.372h-18.366v20.099h18.366v-7.982h9.641c0.743,2.401,2.96,4.173,5.613,4.173c3.251,0,5.887-2.645,5.887-5.888
	C833.979,444.339,831.343,441.694,828.092,441.694z M828.092,450.01c-1.343,0-2.428-1.083-2.428-2.418
	c0-1.343,1.085-2.426,2.428-2.426c1.333,0,2.426,1.083,2.426,2.426C830.518,448.927,829.425,450.01,828.092,450.01z"/>
<path opacity="0.7" fill="none" stroke="#29292B" stroke-miterlimit="10" d="M828.092,380.342c-3.099,0-5.621,2.411-5.848,5.452
	h-9.406v-8.922h-18.366v20.106h18.366v-8.452h9.826c0.899,2.11,2.993,3.6,5.428,3.6c3.251,0,5.887-2.646,5.887-5.889
	C833.979,382.986,831.343,380.342,828.092,380.342z M828.092,388.665c-1.343,0-2.428-1.093-2.428-2.428
	c0-1.343,1.085-2.426,2.428-2.426c1.333,0,2.426,1.083,2.426,2.426C830.518,387.572,829.425,388.665,828.092,388.665z"/>
<path opacity="0.7" fill="none" stroke="#29292B" stroke-miterlimit="10" d="M371.596,294.727v8.323h24.95v-2.451h22.41
	c0,0,32.148-32.147,32.923-32.924c1.086,0,35.361,0,36.349,0c0.654,0.574,5.927,5.241,6.697,5.92c0,0.663,0,2.523,0,3.575h-2.702
	v28.184h8.087v-28.184h-2.654v-4.804l-8.385-7.424h-38.523c0,0-32.147,32.139-32.923,32.925c-0.906,0-16.28,0-21.278,0v-3.139
	H371.596z"/>
<path opacity="0.7" fill="none" stroke="#29292B" stroke-miterlimit="10" d="M469.626,312.755h-24.962v2.87h-11.709
	c0,0-16.125,17.293-16.894,18.118c-0.955,0-15.229,0-19.515,0v-3.317h-24.95v8.323h24.95v-2.273h20.703
	c0,0,16.127-17.283,16.896-18.108c0.833,0,7.529,0,10.52,0v2.702h24.962V312.755z"/>
<path opacity="0.7" fill="none" stroke="#29292B" stroke-miterlimit="10" d="M469.626,330.426h-24.962v2.621h-14.563
	c0,0-14.833,15.818-15.601,16.644c-0.906,0-13.312,0-17.954,0v-2.621h-24.95v8.314h24.95v-2.967h19.143
	c0,0,14.824-15.812,15.592-16.637c0.889,0,9.98,0,13.383,0v2.969h24.962V330.426z"/>
<rect x="444.664" y="347.418" opacity="0.7" fill="none" stroke="#29292B" stroke-miterlimit="10" width="24.962" height="8.313"/>
<path opacity="0.7" fill="none" stroke="#29292B" stroke-miterlimit="10" d="M469.626,369.638v-8.32h-24.962v3.25h-13.302
	c-0.64-2.563-2.943-4.472-5.693-4.472c-3.251,0-5.896,2.652-5.896,5.896c0,3.251,2.645,5.896,5.896,5.896
	c2.798,0,5.135-1.965,5.733-4.586h13.262v2.337H469.626z M425.669,368.417c-1.343,0-2.426-1.085-2.426-2.426
	c0-1.335,1.083-2.427,2.426-2.427c1.333,0,2.418,1.092,2.418,2.427C428.087,367.332,427.002,368.417,425.669,368.417z"/>
<path opacity="0.7" fill="none" stroke="#29292B" stroke-miterlimit="10" d="M444.664,418.142h-34.127c0,0-9.195,9.206-9.932,9.94
	c-1.1,0-39.395,0-39.395,0s0,42.033,0,44.596c-2.28,0-15.714,0-15.714,0v10.151h-3.478v28.193h9.236v-28.193h-3.024
	c0-2.185,0-5.978,0-7.416c2.28,0,15.714,0,15.714,0s0-42.024,0-44.598c2.547,0,37.793,0,37.793,0s9.196-9.195,9.932-9.937
	c0.954,0,26.389,0,32.994,0v3.138h24.962v-8.314h-24.962V418.142z"/>
<path opacity="0.7" fill="none" stroke="#29292B" stroke-miterlimit="10" d="M674.475,442.042v-8.321h-24.958v3.518
	c-12.899,0-125.268,0-126.359,0c-0.784-0.818-26.43-27.586-26.43-27.586s-148.918,0-150.042,0c-0.704-0.703-6.414-6.413-6.414-6.413
	s-30.223,0-31.315,0c-0.735-0.736-9.817-9.819-9.817-9.819H138.568c-0.461-2.79-2.879-4.934-5.799-4.934
	c-3.243,0-5.888,2.645-5.888,5.896s2.645,5.889,5.888,5.889c2.628,0,4.836-1.739,5.597-4.117c15.148,0,158.573,0,159.641,0
	c0.736,0.734,9.818,9.819,9.818,9.819s30.223,0,31.315,0c0.704,0.71,6.405,6.412,6.405,6.412s148.86,0,150.017,0
	c0.777,0.825,26.423,27.587,26.423,27.587h127.532v2.07H674.475z M132.769,396.81c-1.334,0-2.426-1.093-2.426-2.428
	c0-1.344,1.092-2.426,2.426-2.426c1.342,0,2.426,1.082,2.426,2.426C135.195,395.717,134.111,396.81,132.769,396.81z"/>
<rect x="649.517" y="417.78" opacity="0.7" fill="none" stroke="#29292B" stroke-miterlimit="10" width="24.958" height="8.313"/>
<path opacity="0.7" fill="none" stroke="#29292B" stroke-miterlimit="10" d="M674.475,400.101h-24.958v3.258H541.695
	c-0.439-2.821-2.865-4.989-5.801-4.989c-2.942,0-5.37,2.168-5.807,4.989h-60.462v-5.337h-24.962v8.322h24.962v-0.25h60.688
	c0.785,2.344,2.97,4.059,5.58,4.059c2.605,0,4.797-1.715,5.564-4.059h108.058v2.328h24.958V400.101z M535.895,406.683
	c-1.342,0-2.428-1.082-2.428-2.425c0-1.336,1.086-2.428,2.428-2.428c1.334,0,2.419,1.092,2.419,2.428
	C538.313,405.601,537.229,406.683,535.895,406.683z"/>
<path opacity="0.7" fill="none" stroke="#29292B" stroke-miterlimit="10" d="M674.475,382.422h-24.958v3.541H480.966
	c0,0-7.766,7.766-8.494,8.492c-1.115,0-62.274,0-62.274,0s-8.63,8.629-9.358,9.366c-0.582,0-2.701,0-4.294,0v-3.721h-24.95v8.321
	h24.95v-1.867h5.427c0,0,8.621-8.622,9.357-9.356c1.108,0,62.274,0,62.274,0s7.766-7.766,8.492-8.493c1.076,0,153.754,0,167.421,0
	v2.037h24.958V382.422z"/>
<rect x="649.517" y="365.09" opacity="0.7" fill="none" stroke="#29292B" stroke-miterlimit="10" width="24.958" height="8.321"/>
<rect x="649.517" y="348.104" opacity="0.7" fill="none" stroke="#29292B" stroke-miterlimit="10" width="24.958" height="8.323"/>
<rect x="649.517" y="330.426" opacity="0.7" fill="none" stroke="#29292B" stroke-miterlimit="10" width="24.958" height="8.323"/>
<rect x="649.517" y="312.406" opacity="0.7" fill="none" stroke="#29292B" stroke-miterlimit="10" width="24.958" height="8.315"/>
<path opacity="0.7" fill="none" stroke="#29292B" stroke-miterlimit="10" d="M371.596,419.299h-18.473c0,0,0,39.955,0,42.519
	c-2.272,0-15.479,0-15.479,0s0,8.773,0,10.86c-2.588,0-49.973,0-49.973,0v10.151h-9.204v28.193h9.204v23.729l34.833,34.833h228.166
	l10.62-10.627v-30.265h2.679v-27.722h-7.627v27.722h2.216c0,5.638,0,28.179,0,29.132c-0.71,0.704-8.313,8.314-9.018,9.018
	c-1.126,0-224.78,0-225.903,0c-0.777-0.769-32.456-32.447-33.232-33.224c0-1.084,0-55.617,0-58.205c2.588,0,49.973,0,49.973,0
	s0-8.77,0-10.853c2.273,0,15.479,0,15.479,0s0-39.962,0-42.528c1.472,0,9.535,0,15.739,0v1.984h24.95v-8.314h-24.95V419.299z"/>
<path opacity="0.7" fill="none" stroke="#29292B" stroke-miterlimit="10" d="M371.596,451.748v8.313h24.95v-2.442H426
	c0,0,9.194-9.195,9.939-9.93c1.01,0,37.9,0,43.698,0c0,6.299,0,16.61,0,17.355c-0.671,0.671-5.798,5.807-6.478,6.479
	c-0.575,0-2.331,0-3.534,0v-3.142h-24.962v8.323h24.962v-2.448h4.675l8.079-8.081v-22.478c2.466-0.701,4.295-2.95,4.295-5.643
	c0-3.253-2.645-5.898-5.897-5.898c-2.757,0-5.054,1.91-5.692,4.475h-5.459v-2.912h-24.962v8.321h24.962v-2.676h5.418
	c0.518,2.256,2.32,4.018,4.594,4.464c0,0.317,0,0.688,0,1.116h-44.83c0,0-9.203,9.206-9.94,9.94c-0.921,0-21.908,0-28.321,0v-3.139
	H371.596z M478.353,438.057c0-1.335,1.082-2.428,2.425-2.428c1.336,0,2.428,1.093,2.428,2.428c0,1.34-1.092,2.426-2.428,2.426
	C479.435,440.482,478.353,439.396,478.353,438.057z"/>
<path opacity="0.7" fill="none" stroke="#29292B" stroke-miterlimit="10" d="M371.596,477.741h24.95v-2.79h28.532
	c0,0,16.214-16.215,16.984-16.983c0.525,0,1.755,0,2.602,0v1.755h24.962V451.4h-24.962v3.834h-3.742
	c0,0-16.215,16.216-16.976,16.983c-0.938,0-21.448,0-27.4,0v-2.798h-24.95V477.741z"/>
<rect x="444.73" y="274.97" opacity="0.7" fill="none" stroke="#29292B" stroke-miterlimit="10" width="0.347" height="0.347"/>
<rect x="476.621" y="500.971" opacity="0.7" fill="none" stroke="#29292B" stroke-miterlimit="10" width="7.627" height="27.722"/>
<rect x="492.562" y="500.971" opacity="0.7" fill="none" stroke="#29292B" stroke-miterlimit="10" width="7.627" height="27.722"/>
<rect x="507.815" y="500.971" opacity="0.7" fill="none" stroke="#29292B" stroke-miterlimit="10" width="7.627" height="27.722"/>
<rect x="524.449" y="500.971" opacity="0.7" fill="none" stroke="#29292B" stroke-miterlimit="10" width="7.63" height="27.722"/>
<rect x="539.008" y="500.971" opacity="0.7" fill="none" stroke="#29292B" stroke-miterlimit="10" width="7.629" height="27.722"/>
<rect x="571.593" y="500.971" opacity="0.7" fill="none" stroke="#29292B" stroke-miterlimit="10" width="7.627" height="27.722"/>
<rect x="587.194" y="500.971" opacity="0.7" fill="none" stroke="#29292B" stroke-miterlimit="10" width="7.617" height="27.722"/>
<rect x="706.429" y="573.41" opacity="0.7" fill="none" stroke="#29292B" stroke-miterlimit="10" width="12.818" height="17.33"/>
<rect x="732.075" y="573.41" opacity="0.7" fill="none" stroke="#29292B" stroke-miterlimit="10" width="12.828" height="17.33"/>
<rect x="732.075" y="513.101" opacity="0.7" fill="none" stroke="#29292B" stroke-miterlimit="10" width="12.828" height="17.33"/>
<path opacity="0.7" fill="none" stroke="#29292B" stroke-miterlimit="10" d="M719.595,559.546h12.826v-7.415h18.708l4.197-4.197
	c0.437,0.105,0.889,0.17,1.359,0.17c3.251,0,5.896-2.635,5.896-5.889c0-3.251-2.645-5.896-5.896-5.896s-5.889,2.645-5.889,5.896
	c0,1.749,0.777,3.309,1.999,4.384c-0.947,0.939-2.368,2.37-2.8,2.797c-0.88,0-13.232,0-17.575,0v-7.181h-12.826V559.546z
	 M756.686,539.789c1.343,0,2.426,1.083,2.426,2.426c0,1.336-1.083,2.429-2.426,2.429c-1.333,0-2.426-1.093-2.426-2.429
	C754.26,540.872,755.353,539.789,756.686,539.789z"/>
<path opacity="0.7" fill="none" stroke="#29292B" stroke-miterlimit="10" d="M764.661,567.417h-32.975
	c-0.236-3.034-2.749-5.443-5.848-5.443c-3.179,0-5.76,2.53-5.871,5.677c-11.04,0-80.294,0-81.352,0
	c-0.777-0.809-29.683-30.999-30.42-31.768c0-0.632,0-4.488,0-7.19h2.218v-27.722h-7.627v27.722h2.678v8.291l31.978,33.402h83.092
	c0.945,1.989,2.96,3.372,5.305,3.372c2.435,0,4.529-1.487,5.426-3.599h33.396v7.407h18.365v-20.098h-18.365V567.417z
	 M725.839,570.288c-1.342,0-2.428-1.085-2.428-2.428c0-1.333,1.086-2.426,2.428-2.426c1.333,0,2.428,1.093,2.428,2.426
	C728.267,569.203,727.172,570.288,725.839,570.288z"/>
<path opacity="0.7" fill="none" stroke="#29292B" stroke-miterlimit="10" d="M764.661,505.717h-32.9
	c-0.777-2.347-2.969-4.06-5.583-4.06c-2.774,0-5.087,1.941-5.71,4.529h-9.633v6.914h-4.406v11.396h-13.449
	c0,0-14.783,14.782-15.545,15.536c-1.092,0-43.179,0-44.271,0c-0.697-0.696-7.628-7.62-8.331-8.324c0-0.484,0-1.836,0-3.017h2.216
	v-27.722h-7.627v27.722h2.679v4.15l9.931,9.93h46.536c0,0,14.785-14.781,15.535-15.545c0.794,0,8.526,0,12.326,0v3.203h12.818
	v-17.33h-5.677c0-1.366,0-3.153,0-4.181c1.405,0,4.908,0,6.897,0c0.623,2.587,2.936,4.528,5.71,4.528
	c2.943,0,5.37-2.175,5.807-4.992h32.677v8.107h18.365v-20.099h-18.365V505.717z M726.178,509.979c-1.333,0-2.426-1.093-2.426-2.426
	c0-1.343,1.093-2.426,2.426-2.426c1.346,0,2.428,1.083,2.428,2.426C728.605,508.886,727.523,509.979,726.178,509.979z"/>
<path opacity="0.7" fill="none" stroke="#29292B" stroke-miterlimit="10" d="M764.661,447.26h-32.659
	c0.03-0.233,0.073-0.47,0.073-0.713c0-3.251-2.645-5.894-5.897-5.894c-3.241,0-5.887,2.643-5.887,5.894
	c0,0.084,0.024,0.161,0.024,0.252h-9.94v7.026h-3.946v15.951h3.605l-9.485,9.477c0,0,0,26.764,0,27.847
	c-0.669,0.68-6.023,6.033-6.703,6.714c-0.988,0-41.376,0-50.508,0v-12.843h-7.62v27.722h7.62v-12.146h51.638l8.313-8.313
	c0,0,0-26.754,0-27.847c0.643-0.639,8.405-8.411,10.613-10.609h4.658v-15.951h-5.45c0-1.194,0-3.152,0-4.293
	c1.683,0,6.421,0,8.023,0c1.025,1.732,2.896,2.912,5.044,2.912c1.967,0,3.689-0.971,4.765-2.451h33.719v7.296h18.365V437.19h-18.365
	V447.26z M726.178,448.975c-1.333,0-2.426-1.092-2.426-2.428c0-1.333,1.093-2.426,2.426-2.426c1.346,0,2.428,1.093,2.428,2.426
	C728.605,447.883,727.523,448.975,726.178,448.975z"/>
<path opacity="0.7" fill="none" stroke="#29292B" stroke-miterlimit="10" d="M764.661,386.027h-32.725
	c-0.573-2.652-2.936-4.642-5.759-4.642c-2.561,0-4.723,1.657-5.53,3.947h-9.583v7.837h-4.636v9.494h-5.409c0,0,0,61.498,0,62.613
	c-0.762,0.762-22.128,22.12-22.891,22.882c-0.556,0-2.327,0-3.654,0v-2.79h-24.958v8.32h24.958v-2.798h4.787l24.49-24.48
	c0,0,0-58.401,0-61.021c0.734,0,1.763,0,2.677,0v3.728h12.132V393.17h-4.756c0-1.578,0-3.923,0-5.104c1.432,0,4.827,0,6.565,0
	c0.389,2.871,2.833,5.104,5.808,5.104c2.742,0,5.022-1.876,5.686-4.407h32.798v8.216h18.365v-20.106h-18.365V386.027z
	 M726.178,389.7c-1.333,0-2.426-1.093-2.426-2.428c0-1.333,1.093-2.426,2.426-2.426c1.346,0,2.428,1.093,2.428,2.426
	C728.605,388.607,727.523,389.7,726.178,389.7z"/>
<path opacity="0.7" fill="none" stroke="#29292B" stroke-miterlimit="10" d="M764.661,324.32h-32.725
	c-0.581-2.646-2.936-4.636-5.759-4.636c-2.645,0-4.861,1.765-5.604,4.175h-12.275v8.304h-1.869v9.495h-12.464
	c0,0,0,112.904,0,114.03c-0.742,0.741-16.013,16.012-16.757,16.756c-0.467,0-1.681,0-2.733,0v-2.668h-24.958v8.312h24.958v-2.911
	h3.867l18.358-18.359c0,0,0-109.756,0-112.425c1.553,0,6.775,0,9.729,0v3.711h12.132v-15.941h-7.53c0-1.551,0-4.261,0-5.563
	c1.625,0,6.907,0,9.366,0c0.483,2.76,2.886,4.87,5.781,4.87c2.742,0,5.022-1.886,5.686-4.409h32.798v8.565h18.365v-20.098h-18.365
	V324.32z M726.178,328c-1.333,0-2.426-1.085-2.426-2.419c0-1.342,1.093-2.435,2.426-2.435c1.346,0,2.428,1.093,2.428,2.435
	C728.605,326.915,727.523,328,726.178,328z"/>
<path opacity="0.7" fill="none" stroke="#29292B" stroke-miterlimit="10" d="M764.661,263.55h-33.315
	c-0.169-3.089-2.727-5.564-5.854-5.564c-3.251,0-5.896,2.645-5.896,5.896c0,0.122,0.032,0.236,0.041,0.364h-10.651v6.22h-2.556
	v15.164L685.88,306.18c0,0,0,140.062,0,141.186c-0.68,0.68-6.376,6.372-7.055,7.052c-0.582,0-2.757,0-4.351,0V451.4h-24.958v8.322
	h24.958v-2.562h5.483l8.652-8.663c0,0,0-140.061,0-141.186c0.697-0.688,17.397-17.396,20.899-20.897h9.051v-15.949h-6.843
	c0-1.205,0-2.612,0-3.486c1.755,0,7.157,0,8.784,0c1.042,1.667,2.879,2.791,4.989,2.791c2.387,0,4.44-1.432,5.36-3.486h33.81v9.73
	h18.365v-20.106h-18.365V263.55z M725.491,266.309c-1.344,0-2.426-1.093-2.426-2.428c0-1.342,1.082-2.426,2.426-2.426
	c1.335,0,2.425,1.084,2.425,2.426C727.916,265.216,726.826,266.309,725.491,266.309z"/>
<path opacity="0.7" fill="none" stroke="#29292B" stroke-miterlimit="10" d="M718.908,239.967v15.94h12.123v-6.26h19.403
	c0,0,8.507-8.508,9.241-9.244c0.747,0,5.557,0,8.075,0c0.775,2.353,2.968,4.068,5.571,4.068c3.251,0,5.896-2.645,5.896-5.896
	c0-3.252-2.645-5.889-5.896-5.889c-2.936,0-5.363,2.168-5.8,4.982h-8.979c0,0-8.506,8.508-9.242,9.244c-0.855,0-13.362,0-18.27,0
	v-6.947H718.908z M773.322,236.15c1.343,0,2.426,1.092,2.426,2.426c0,1.333-1.083,2.426-2.426,2.426
	c-1.335,0-2.428-1.092-2.428-2.426C770.895,237.242,771.987,236.15,773.322,236.15z"/>
<path opacity="0.7" fill="none" stroke="#29292B" stroke-miterlimit="10" d="M718.908,301.31v15.95h12.123v-6.373h18.48l6.071-6.067
	c0.568,0.179,1.166,0.309,1.796,0.309c3.247,0,5.892-2.644,5.892-5.895c0-3.245-2.645-5.89-5.892-5.89
	c-3.25,0-5.896,2.645-5.896,5.89c0,1.608,0.647,3.057,1.691,4.115c-1.424,1.432-4.278,4.279-4.793,4.796c-0.933,0-13.955,0-17.351,0
	v-6.835H718.908z M757.379,296.806c1.336,0,2.429,1.092,2.429,2.428c0,1.341-1.093,2.426-2.429,2.426
	c-1.34,0-2.426-1.085-2.426-2.426C754.953,297.898,756.039,296.806,757.379,296.806z"/>
<path opacity="0.7" fill="none" stroke="#29292B" stroke-miterlimit="10" d="M718.908,361.976v15.94h12.123v-7.644h20.561
	c0.483,2.767,2.888,4.87,5.787,4.87c3.247,0,5.892-2.645,5.892-5.896c0-3.243-2.645-5.889-5.892-5.889
	c-2.651,0-4.867,1.771-5.611,4.181h-20.736v-5.563H718.908z M757.379,366.818c1.336,0,2.429,1.093,2.429,2.429
	c0,1.343-1.093,2.433-2.429,2.433c-1.34,0-2.426-1.09-2.426-2.433C754.953,367.911,756.039,366.818,757.379,366.818z"/>
<path opacity="0.7" fill="none" stroke="#29292B" stroke-miterlimit="10" d="M718.908,422.631v15.943h12.123v-6.608h18.715
	l5.303-5.307c0.723,0.3,1.508,0.477,2.33,0.477c3.247,0,5.892-2.645,5.892-5.896c0-3.244-2.645-5.889-5.892-5.889
	c-3.25,0-5.896,2.645-5.896,5.889c0,1.431,0.527,2.717,1.376,3.745c-1.211,1.214-3.736,3.729-4.247,4.245c-0.93,0-14.161,0-17.581,0
	v-6.6H718.908z M757.379,418.814c1.336,0,2.429,1.091,2.429,2.426c0,1.344-1.093,2.436-2.429,2.436c-1.34,0-2.426-1.092-2.426-2.436
	C754.953,419.905,756.039,418.814,757.379,418.814z"/>
<path opacity="0.7" fill="none" stroke="#29292B" stroke-miterlimit="10" d="M718.908,482.943v15.947h12.123v-6.382h18.715
	l5.012-5.014c0.795,0.404,1.678,0.647,2.621,0.647c3.247,0,5.892-2.646,5.892-5.896c0-3.251-2.645-5.889-5.892-5.889
	c-3.25,0-5.896,2.638-5.896,5.889c0,1.309,0.446,2.506,1.167,3.483c-1.27,1.278-3.552,3.561-4.038,4.045c-0.896,0-13.495,0-17.581,0
	v-6.832H718.908z M757.379,479.821c1.336,0,2.429,1.09,2.429,2.426c0,1.342-1.093,2.425-2.429,2.425
	c-1.34,0-2.426-1.083-2.426-2.425C754.953,480.911,756.039,479.821,757.379,479.821z"/>
<rect x="731.379" y="270.465" opacity="0.7" fill="none" stroke="#29292B" stroke-miterlimit="10" width="12.14" height="15.949"/>
<rect x="731.379" y="332.163" opacity="0.7" fill="none" stroke="#29292B" stroke-miterlimit="10" width="12.14" height="15.941"/>
<rect x="731.379" y="393.17" opacity="0.7" fill="none" stroke="#29292B" stroke-miterlimit="10" width="12.14" height="15.948"/>
<rect x="731.379" y="453.825" opacity="0.7" fill="none" stroke="#29292B" stroke-miterlimit="10" width="12.14" height="15.951"/>
<rect x="633.867" y="277.169" opacity="0.7" fill="none" stroke="#29292B" stroke-miterlimit="10" width="10.401" height="28.184"/>
<rect x="602.672" y="277.169" opacity="0.7" fill="none" stroke="#29292B" stroke-miterlimit="10" width="8.09" height="28.184"/>
<path opacity="0.7" fill="none" stroke="#29292B" stroke-miterlimit="10" d="M595.282,305.354v-28.184h-8.088v28.184h3.018v22.062
	l8.077,8.08h17.809l8.454-6.907v-6.055c2.79-0.464,4.923-2.881,4.923-5.801c0-3.243-2.643-5.887-5.887-5.887
	c-3.25,0-5.896,2.644-5.896,5.887c0,2.629,1.739,4.837,4.124,5.596c0,1.507,0,4.214,0,4.968c-0.832,0.68-6.058,4.948-6.688,5.459
	c-0.889,0-14.679,0-15.706,0c-0.671-0.673-5.798-5.8-6.478-6.478c0-0.906,0-16.193,0-20.925H595.282z M623.588,314.307
	c1.334,0,2.419,1.092,2.419,2.427c0,1.343-1.085,2.436-2.419,2.436c-1.342,0-2.428-1.093-2.428-2.436
	C621.16,315.398,622.246,314.307,623.588,314.307z"/>
<rect x="571.94" y="277.169" opacity="0.7" fill="none" stroke="#29292B" stroke-miterlimit="10" width="8.088" height="28.184"/>
<path opacity="0.7" fill="none" stroke="#29292B" stroke-miterlimit="10" d="M485.056,305.354v-28.184h-8.087v12.551h-37.836
	c0,0-24.786,24.789-25.563,25.565c-0.889,0-13.094,0-17.024,0v-2.531h-24.95v8.314h24.95v-3.051h18.156
	c0,0,24.787-24.788,25.563-25.563c0.971,0,29.659,0,36.703,0v12.898H485.056z"/>
<path opacity="0.7" fill="none" stroke="#29292B" stroke-miterlimit="10" d="M366.516,274.606h59.928
	c0,0,14.129-15.447,14.898-16.289c1.164,0,52.157,0,53.258,0c0.743,0.744,15.092,15.092,15.836,15.835c0,0.526,0,1.949,0,3.017
	h-2.499v28.184h8.086v-28.184h-2.854v-4.149l-17.437-17.445h-55.596c0,0-14.129,15.456-14.896,16.296c-1.076,0-49.513,0-58.724,0
	v-11.347h-8.088v28.193h8.088V274.606z"/>
<rect x="278.936" y="260.525" opacity="0.7" fill="none" stroke="#29292B" stroke-miterlimit="10" width="8.087" height="28.193"/>
<path opacity="0.7" fill="none" stroke="#29292B" stroke-miterlimit="10" d="M623.588,267.173c-3.25,0-5.896,2.645-5.896,5.887
	c0,1.173,0.356,2.265,0.947,3.178h-0.253v29.115h10.394v-29.115h-0.25c0.591-0.913,0.944-2.005,0.944-3.178
	C629.475,269.818,626.832,267.173,623.588,267.173z M623.588,275.496c-1.342,0-2.428-1.092-2.428-2.435
	c0-1.334,1.086-2.426,2.428-2.426c1.334,0,2.419,1.092,2.419,2.426C626.007,274.403,624.922,275.496,623.588,275.496z"/>
<path opacity="0.7" fill="none" stroke="#29292B" stroke-miterlimit="10" d="M194.356,294.727h-25.419v3.316
	c-0.938,0-2.192,0-3.082,0c0-2.346,0-18.375,0-18.375H44.63c-0.494-2.766-2.896-4.869-5.791-4.869c-3.251,0-5.896,2.645-5.896,5.888
	c0,3.251,2.645,5.896,5.896,5.896c2.644,0,4.869-1.771,5.604-4.181c11.808,0,116.154,0,118.678,0c0,2.345,0,18.375,0,18.375h5.815
	v2.038h25.419V294.727z M38.839,283.113c-1.342,0-2.426-1.083-2.426-2.426c0-1.334,1.084-2.426,2.426-2.426
	c1.335,0,2.426,1.092,2.426,2.426C41.265,282.03,40.175,283.113,38.839,283.113z"/>
<path opacity="0.7" fill="none" stroke="#29292B" stroke-miterlimit="10" d="M168.937,312.755v2.62H37.352
	c0,0-6.552,7.48-7.28,8.313c-0.857,0-9.826,0-14.403,0v2.735h15.642c0,0,6.551-7.491,7.279-8.323c1.164,0,116.979,0,130.348,0v2.742
	h25.419v-8.088H168.937z"/>
<path opacity="0.7" fill="none" stroke="#29292B" stroke-miterlimit="10" d="M168.937,328.639v8.088h25.419v-2.679h27.676
	c0.614,2.597,2.935,4.529,5.717,4.529c3.244,0,5.888-2.643,5.888-5.894c0-3.253-2.645-5.897-5.888-5.897
	c-2.782,0-5.095,1.941-5.717,4.529h-27.676v-2.677H168.937z M227.749,330.256c1.335,0,2.427,1.093,2.427,2.428
	c0,1.341-1.092,2.426-2.427,2.426c-1.342,0-2.426-1.085-2.426-2.426C225.323,331.349,226.407,330.256,227.749,330.256z"/>
<path opacity="0.7" fill="none" stroke="#29292B" stroke-miterlimit="10" d="M194.356,345.564h-25.419v8.09h25.419v-1.869h82.372
	c0.51,2.732,2.903,4.812,5.782,4.812c2.799,0,5.136-1.958,5.734-4.579c5.436,0,38.95,0,41.311,0c0,2.476,0,28.188,0,28.188h42.04
	v9.84h24.95v-9.84h34.355c-2.24,0.839-3.849,2.982-3.849,5.506c0,3.251,2.643,5.896,5.896,5.896c3.241,0,5.886-2.646,5.886-5.896
	c0-2.523-1.609-4.667-3.85-5.506h9.68v9.84h24.962v-10.069h123.795c0.786,2.323,2.967,4.005,5.557,4.005
	c3.242,0,5.887-2.644,5.887-5.896c0-3.244-2.645-5.889-5.887-5.889c-2.959,0-5.394,2.201-5.807,5.049H469.626v-2.452h-24.962v2.677
	h-48.118v-2.677h-24.95v2.677c-6.835,0-37.034,0-39.306,0c0-2.474,0-28.183,0-28.183h-44.078c-0.639-2.566-2.944-4.475-5.702-4.475
	c-2.668,0-4.901,1.796-5.629,4.238h-82.525V345.564z M432.948,388.146c-1.343,0-2.429-1.09-2.429-2.434
	c0-1.332,1.086-2.425,2.429-2.425c1.332,0,2.425,1.093,2.425,2.425C435.373,387.056,434.28,388.146,432.948,388.146z
	 M598.978,375.66c1.334,0,2.426,1.092,2.426,2.426c0,1.342-1.092,2.425-2.426,2.425c-1.342,0-2.435-1.083-2.435-2.425
	C596.543,376.752,597.636,375.66,598.978,375.66z M282.51,348.283c1.343,0,2.427,1.083,2.427,2.426c0,1.335-1.084,2.426-2.427,2.426
	c-1.334,0-2.425-1.091-2.425-2.426C280.085,349.366,281.176,348.283,282.51,348.283z"/>
<path opacity="0.7" fill="none" stroke="#29292B" stroke-miterlimit="10" d="M168.937,364.056v8.087h25.419v-2.564H197
	c0,0,6.559-6.568,7.278-7.278c1.061,0,81.92,0,89.942,0c0.962,1.956,2.953,3.315,5.273,3.315c3.251,0,5.896-2.646,5.896-5.896
	c0-3.251-2.644-5.889-5.896-5.889c-3.194,0-5.791,2.556-5.871,5.733h-90.476c0,0-6.568,6.561-7.279,7.278c-0.348,0-0.947,0-1.512,0
	v-2.787H168.937z M299.494,357.294c1.343,0,2.427,1.082,2.427,2.426c0,1.333-1.084,2.426-2.427,2.426
	c-1.334,0-2.426-1.093-2.426-2.426C297.068,358.376,298.16,357.294,299.494,357.294z"/>
<rect x="168.937" y="380.926" opacity="0.7" fill="none" stroke="#29292B" stroke-miterlimit="10" width="25.419" height="8.085"/>
<path opacity="0.7" fill="none" stroke="#29292B" stroke-miterlimit="10" d="M168.937,400.101v8.087h25.419v-3.251
	c14.016,0,94.536,0,95.562,0c0.461,0.468,2.499,2.507,3.729,3.735c-0.679,0.957-1.084,2.128-1.084,3.39
	c0,3.243,2.646,5.888,5.888,5.888c3.252,0,5.896-2.645,5.896-5.888c0-3.251-2.644-5.896-5.896-5.896
	c-0.986,0-1.908,0.267-2.733,0.703l-4.666-4.665h-96.696v-2.104H168.937z M298.451,409.629c1.344,0,2.435,1.089,2.435,2.433
	c0,1.335-1.091,2.425-2.435,2.425c-1.333,0-2.417-1.09-2.417-2.425C296.033,410.718,297.117,409.629,298.451,409.629z"/>
<path opacity="0.7" fill="none" stroke="#29292B" stroke-miterlimit="10" d="M168.937,424.822h25.419v-3.25h13.037
	c0.881,2.144,2.993,3.656,5.451,3.656c3.243,0,5.887-2.645,5.887-5.887c0-3.253-2.644-5.897-5.887-5.897
	c-3.082,0-5.588,2.378-5.848,5.395h-12.64v-2.101h-25.419V424.822z M212.844,416.907c1.334,0,2.426,1.089,2.426,2.435
	c0,1.333-1.092,2.424-2.426,2.424c-1.342,0-2.427-1.091-2.427-2.424C210.417,417.996,211.501,416.907,212.844,416.907z"/>
<path opacity="0.7" fill="none" stroke="#29292B" stroke-miterlimit="10" d="M168.937,441.922h25.419v-2.33h1.948
	c0,0,8.056-8.049,8.784-8.776c1.092,0,30.499,0,30.499,0l5.653-5.642c0.654,0.248,1.358,0.402,2.102,0.402
	c3.252,0,5.896-2.645,5.896-5.889c0-3.251-2.644-5.896-5.896-5.896c-3.25,0-5.887,2.645-5.887,5.896
	c0,1.496,0.574,2.855,1.504,3.891c-1.173,1.173-3.962,3.963-4.497,4.504c-1.093,0-30.506,0-30.506,0s-8.056,8.047-8.783,8.776
	c-0.21,0-0.502,0-0.817,0v-3.026h-25.419V441.922z M243.342,417.262c1.335,0,2.428,1.084,2.428,2.426
	c0,1.337-1.092,2.429-2.428,2.429c-1.333,0-2.426-1.092-2.426-2.429C240.916,418.346,242.008,417.262,243.342,417.262z"/>
<rect x="39.066" y="453.94" opacity="0.7" fill="none" stroke="#29292B" stroke-miterlimit="10" width="17.567" height="18.487"/>
<rect x="68.65" y="453.94" opacity="0.7" fill="none" stroke="#29292B" stroke-miterlimit="10" width="17.559" height="18.487"/>
<path opacity="0.7" fill="none" stroke="#29292B" stroke-miterlimit="10" d="M48.755,384.62v-25.862H15.669v2.731
	c8.693,0,28.387,0,30.353,0c0,2.005,0,17.462,0,23.131h-7.183v18.254h17.097V384.62H48.755z"/>
<rect x="68.189" y="384.62" opacity="0.7" fill="none" stroke="#29292B" stroke-miterlimit="10" width="17.097" height="18.254"/>
<path opacity="0.7" fill="none" stroke="#29292B" stroke-miterlimit="10" d="M250.298,511.022c0,10.966,0,61.684,0,64.028
	c-2.426,0-74.851,0-87.371,0v-8.571h-30.507v17.331h30.507v-6.033h90.104v-66.755h3.251v-28.193h-9.236v28.193H250.298z"/>
<path opacity="0.7" fill="none" stroke="#29292B" stroke-miterlimit="10" d="M394.467,112.174V86.529h-12.941v10.029
	c-1.075-1.221-2.636-1.998-4.392-1.998c-3.243,0-5.888,2.636-5.888,5.888c0,3.251,2.645,5.896,5.888,5.896
	c1.755,0,3.316-0.785,4.392-2.005v7.836H394.467z M377.135,102.874c-1.335,0-2.427-1.092-2.427-2.426s1.092-2.426,2.427-2.426
	c1.342,0,2.427,1.092,2.427,2.426S378.477,102.874,377.135,102.874z"/>
<rect x="409.955" y="90.226" opacity="0.7" fill="none" stroke="#29292B" stroke-miterlimit="10" width="13.167" height="17.096"/>
<path opacity="0.7" fill="none" stroke="#29292B" stroke-miterlimit="10" d="M463.794,19.136c3.251,0,5.896-2.646,5.896-5.889
	c0-3.251-2.646-5.896-5.896-5.896c-1.738,0-3.283,0.768-4.358,1.965h-15.975v7.853h15.975
	C460.511,18.366,462.056,19.136,463.794,19.136z M463.794,10.82c1.335,0,2.426,1.084,2.426,2.427c0,1.334-1.091,2.426-2.426,2.426
	c-1.343,0-2.427-1.091-2.427-2.426C461.367,11.904,462.451,10.82,463.794,10.82z"/>
<rect x="443.461" y="95.538" opacity="0.7" fill="none" stroke="#29292B" stroke-miterlimit="10" width="17.794" height="7.854"/>
<path opacity="0.7" fill="none" stroke="#29292B" stroke-miterlimit="10" d="M461.255,154.691v-7.853h-17.794v4.237h-19.692
	c0,0-6.738,6.729-7.449,7.449c-1.076,0-28.881,0-29.949,0c-0.614-0.614-9.098-9.098-12.212-12.212
	c0.768-0.995,1.246-2.224,1.246-3.575c0-3.251-2.645-5.896-5.888-5.896c-3.251,0-5.896,2.645-5.896,5.896
	c0,3.243,2.645,5.888,5.896,5.888c0.897,0,1.74-0.218,2.507-0.583l13.216,13.215h32.212c0,0,6.729-6.729,7.45-7.448
	c0.881,0,13.933,0,18.56,0v0.881H461.255z M367.09,142.737c0-1.342,1.084-2.426,2.426-2.426c1.334,0,2.426,1.083,2.426,2.426
	c0,1.334-1.092,2.426-2.426,2.426C368.174,145.164,367.09,144.072,367.09,142.737z"/>
<rect x="515.555" y="7.036" opacity="0.7" fill="none" stroke="#29292B" stroke-miterlimit="10" width="17.566" height="10.166"/>
<rect x="515.32" y="164.17" opacity="0.7" fill="none" stroke="#29292B" stroke-miterlimit="10" width="17.341" height="7.86"/>
<rect x="670.724" y="-0.639" opacity="0.7" fill="none" stroke="#29292B" stroke-miterlimit="10" width="29.461" height="25.006"/>
<polygon opacity="0.7" fill="none" stroke="#29292B" stroke-miterlimit="10" points="276.614,158.622 281.718,158.622 
	281.718,171.335 279.162,171.335 279.162,189.815 291.868,189.815 291.868,171.335 284.459,171.335 284.459,158.622 
	292.329,158.622 292.329,140.133 276.614,140.133 "/>
<rect x="191.582" y="86.99" opacity="0.7" fill="none" stroke="#29292B" stroke-miterlimit="10" width="15.479" height="24.959"/>
<path opacity="0.7" fill="none" stroke="#29292B" stroke-miterlimit="10" d="M142.822,136.672v18.949h10.167v-12.035h13.401
	c0.646,1.893,2.215,3.357,4.18,3.826v13.749h-7.182v18.262h18.028v-18.262h-8.112v-13.749c2.596-0.624,4.529-2.944,4.529-5.719
	c0-3.25-2.645-5.887-5.896-5.887c-2.952,0-5.386,2.2-5.807,5.039h-13.142v-4.173H142.822z M171.937,139.268
	c1.342,0,2.426,1.092,2.426,2.426c0,1.344-1.084,2.427-2.426,2.427c-1.334,0-2.426-1.083-2.426-2.427
	C169.511,140.36,170.603,139.268,171.937,139.268z"/>
<rect x="127.107" y="136.672" opacity="0.7" fill="none" stroke="#29292B" stroke-miterlimit="10" width="10.174" height="18.949"/>
<path opacity="0.7" fill="none" stroke="#29292B" stroke-miterlimit="10" d="M116.772,165.269c3.251,0,5.896-2.645,5.896-5.896
	c0-1.432-0.542-2.733-1.392-3.752h0.575v-18.949h-10.167v18.949h0.583c-0.856,1.019-1.391,2.321-1.391,3.752
	C110.876,162.625,113.521,165.269,116.772,165.269z M116.772,156.947c1.334,0,2.426,1.092,2.426,2.426
	c0,1.335-1.092,2.426-2.426,2.426c-1.343,0-2.426-1.091-2.426-2.426C114.346,158.039,115.429,156.947,116.772,156.947z"/>
<rect x="96.375" y="136.672" opacity="0.7" fill="none" stroke="#29292B" stroke-miterlimit="10" width="10.174" height="18.949"/>
<rect x="81.129" y="136.672" opacity="0.7" fill="none" stroke="#29292B" stroke-miterlimit="10" width="10.166" height="18.949"/>
<path opacity="0.7" fill="none" stroke="#29292B" stroke-miterlimit="10" d="M69.628,165.269c3.252,0,5.896-2.645,5.896-5.896
	c0-1.432-0.534-2.733-1.391-3.752h0.583v-18.949H64.55v18.949h0.574c-0.849,1.019-1.391,2.321-1.391,3.752
	C63.733,162.625,66.377,165.269,69.628,165.269z M69.628,156.947c1.343,0,2.426,1.092,2.426,2.426c0,1.335-1.083,2.426-2.426,2.426
	c-1.333,0-2.426-1.091-2.426-2.426C67.203,158.039,68.295,156.947,69.628,156.947z"/>
<path opacity="0.7" fill="none" stroke="#29292B" stroke-miterlimit="10" d="M43.345,155.621v-18.949H33.178v18.949h0.582
	c-0.856,1.019-1.391,2.321-1.391,3.752c0,3.251,2.646,5.896,5.896,5.896c3.244,0,5.888-2.645,5.888-5.896
	c0-1.432-0.534-2.733-1.391-3.752H43.345z M38.265,161.8c-1.342,0-2.435-1.091-2.435-2.426c0-1.334,1.092-2.426,2.435-2.426
	c1.335,0,2.427,1.092,2.427,2.426C40.692,160.708,39.6,161.8,38.265,161.8z"/>
<path opacity="0.7" fill="none" stroke="#29292B" stroke-miterlimit="10" d="M86.88,214.312v-14.89H34.917l-12.471,12.471
	c0,0,0,21.716,0,24.159c-1.253,0-4.44,0-6.777,0v2.733h9.52c0,0,0-24.675,0-25.759c0.719-0.72,10.141-10.142,10.861-10.861
	c1.084,0,45.541,0,48.096,0c0,1.731,0,8.904,0,12.147h-3.25v18.95h10.167v-18.95H86.88z"/>
<path opacity="0.7" fill="none" stroke="#29292B" stroke-miterlimit="10" d="M107.01,214.312H96.836v18.885
	c-0.712,0.979-1.148,2.168-1.148,3.47c0,3.251,2.636,5.896,5.887,5.896c3.25,0,5.896-2.645,5.896-5.896
	c0-1.271-0.42-2.442-1.108-3.404h0.646V214.312z M101.576,239.093c-1.335,0-2.426-1.084-2.426-2.426
	c0-1.334,1.091-2.427,2.426-2.427c1.342,0,2.426,1.092,2.426,2.427C104.002,238.009,102.918,239.093,101.576,239.093z"/>
<rect x="163.388" y="192.362" opacity="0.7" fill="none" stroke="#29292B" stroke-miterlimit="10" width="18.028" height="18.254"/>
<rect x="245.655" y="138.055" opacity="0.7" fill="none" stroke="#29292B" stroke-miterlimit="10" width="10.167" height="18.027"/>
<path opacity="0.7" fill="none" stroke="#29292B" stroke-miterlimit="10" d="M209.374,233.723v-18.027h-10.166v4.181h-3.575
	c0,0-7.133,7.133-7.853,7.861c-0.744,0-6.526,0-9.664,0c-0.316-2.96-2.791-5.281-5.831-5.281c-3.251,0-5.888,2.645-5.888,5.895
	c0,3.244,2.637,5.888,5.888,5.888c2.499,0,4.634-1.568,5.483-3.769h11.145c0,0,7.133-7.141,7.853-7.86c0.453,0,1.512,0,2.442,0
	v11.111H209.374z M172.285,230.78c-1.335,0-2.427-1.092-2.427-2.428c0-1.342,1.092-2.426,2.427-2.426
	c1.343,0,2.426,1.084,2.426,2.426C174.711,229.688,173.628,230.78,172.285,230.78z"/>
<path opacity="0.7" fill="none" stroke="#29292B" stroke-miterlimit="10" d="M132.769,58.247c-2.774,0-5.095,1.94-5.709,4.528
	H15.669v2.734H127.06c0.614,2.588,2.935,4.521,5.709,4.521c3.251,0,5.896-2.645,5.896-5.887
	C138.665,60.891,136.02,58.247,132.769,58.247z M132.769,66.568c-1.334,0-2.426-1.092-2.426-2.426c0-1.343,1.092-2.426,2.426-2.426
	c1.342,0,2.426,1.083,2.426,2.426C135.195,65.477,134.111,66.568,132.769,66.568z"/>
<path opacity="0.7" fill="none" stroke="#29292B" stroke-miterlimit="10" d="M515.32,96.46v2.565c-0.734,0-1.535,0-1.958,0
	c-0.744-0.883-8.49-10.054-8.49-10.054s-70.017,0-71.133,0c-0.729-0.727-8.436-8.435-8.436-8.435h-50.32
	c-0.534-2.119-2.208-3.785-4.334-4.294v-4.36H217.712c0,0-7.253,7.255-7.981,7.975c-0.93,0-19.33,0-24.449,0
	c-0.623-2.58-2.937-4.521-5.718-4.521c-2.774,0-5.095,1.941-5.717,4.521H66.741c-0.622-2.58-2.944-4.521-5.717-4.521
	c-2.774,0-5.095,1.941-5.718,4.521H15.669v2.742h39.637c0.623,2.588,2.944,4.521,5.718,4.521c2.773,0,5.095-1.932,5.717-4.521
	h107.105c0.623,2.588,2.943,4.521,5.717,4.521c2.782,0,5.095-1.932,5.718-4.521h25.58c0,0,7.263-7.263,7.983-7.983
	c1.116,0,146.393,0,149.07,0c0,0.559,0,1.165,0,1.634c-2.588,0.614-4.529,2.936-4.529,5.709c0,3.252,2.645,5.896,5.896,5.896
	c2.798,0,5.135-1.965,5.733-4.586c6.511,0,48.139,0,49.158,0c0.728,0.728,8.435,8.436,8.435,8.436s69.74,0,70.993,0
	c0.736,0.881,8.492,10.053,8.492,10.053h3.227v2.563h17.341V96.46H515.32z M61.024,83.658c-1.343,0-2.426-1.092-2.426-2.427
	c0-1.342,1.083-2.426,2.426-2.426c1.334,0,2.426,1.084,2.426,2.426C63.45,82.566,62.358,83.658,61.024,83.658z M179.563,83.658
	c-1.334,0-2.426-1.092-2.426-2.427c0-1.342,1.092-2.426,2.426-2.426c1.343,0,2.426,1.084,2.426,2.426
	C181.99,82.566,180.906,83.658,179.563,83.658z M369.282,84.386c-1.335,0-2.427-1.084-2.427-2.427c0-1.334,1.092-2.426,2.427-2.426
	c1.334,0,2.426,1.092,2.426,2.426C371.708,83.302,370.617,84.386,369.282,84.386z"/>
<path opacity="0.7" fill="none" stroke="#29292B" stroke-miterlimit="10" d="M461.255,138.524v-7.861h-17.794v2.442
	c-0.461,0-0.897,0-1.164,0c-0.737-0.728-9.132-9.123-9.132-9.123s-60.737,0-61.902,0c-0.792-0.849-32.124-34.437-32.124-34.437
	h-96.646c0,0,0,18.052,0,19.12c-0.655,0.663-5.063,5.062-5.727,5.726c-1.101,0-54.495,0-55.594,0
	c-0.761-0.761-16.289-16.297-16.289-16.297H45.076v-6.948H32.369v16.41h12.707v-6.721c15.042,0,117.633,0,118.668,0
	c0.769,0.761,16.297,16.289,16.297,16.289H237.9l7.335-7.327c0,0,0-15.172,0-17.51c2.637,0,91.559,0,92.715,0
	c0.793,0.841,32.124,34.429,32.124,34.429s60.843,0,61.95,0c0.737,0.728,9.132,9.122,9.132,9.122h2.305v2.686H461.255z"/>
<path opacity="0.7" fill="none" stroke="#29292B" stroke-miterlimit="10" d="M461.255,112.635h-17.794v2.791
	c-8.904,0-66.294,0-67.353,0c-0.793-0.817-31.194-32.577-31.194-32.577H235.966c0,0,0,12.98,0,15.245c-0.566,0-1.334,0-2.094,0
	v-7.643h-13.175v17.105h13.175v-6.721h4.829c0,0,0-12.988,0-15.253c2.653,0,103.9,0,105.041,0
	c0.785,0.825,31.193,32.584,31.193,32.584h68.526v2.33h17.794V112.635z"/>
<path opacity="0.7" fill="none" stroke="#29292B" stroke-miterlimit="10" d="M254.317,29.568c0-6.123-4.974-11.097-11.088-11.097
	c-6.115,0-11.088,4.974-11.088,11.097c0,5.604,4.189,10.247,9.608,10.975v26.091c0,0,183.379,0,184.51,0
	c0.663,0.663,13.676,13.676,17.202,17.202v2.92h17.794v-7.853h-17.794v1.068l-16.07-16.071c0,0-180.215,0-182.908,0
	c0-2.078,0-18.366,0-23.316C250.007,39.952,254.317,35.253,254.317,29.568z M243.229,36.499c-3.825,0-6.931-3.113-6.931-6.93
	c0-3.826,3.105-6.939,6.931-6.939s6.931,3.113,6.931,6.939C250.161,33.385,247.055,36.499,243.229,36.499z"/>
<path opacity="0.7" fill="none" stroke="#29292B" stroke-miterlimit="10" d="M285.52,29.568c0-6.123-4.982-11.097-11.097-11.097
	s-11.088,4.974-11.088,11.097c0,5.685,4.311,10.384,9.834,11.015v15.043c0,0,157.829,0,158.944,0
	c0.752,0.752,11.3,11.298,11.3,11.298l0.048-0.041v2.079h17.794v-7.853h-17.794v1.998l-10.207-10.215c0,0-154.658,0-157.342,0
	c0-1.723,0-8.944,0-12.349C281.322,39.815,285.52,35.173,285.52,29.568z M274.423,36.499c-3.817,0-6.931-3.113-6.931-6.93
	c0-3.826,3.114-6.939,6.931-6.939c3.826,0,6.931,3.113,6.931,6.939C281.354,33.385,278.249,36.499,274.423,36.499z"/>
<path opacity="0.7" fill="none" stroke="#29292B" stroke-miterlimit="10" d="M365.198-0.639l-12.997,12.996v36.428h91.26v2.159
	h17.794v-7.862h-17.794v2.969c-9.285,0-86.036,0-88.526,0c0-2.483,0-31.509,0-32.561c0.606-0.599,9.592-9.592,13.24-13.239v18.318
	c-5.476,0.671-9.722,5.346-9.722,11c0,6.113,4.974,11.087,11.087,11.087c6.114,0,11.097-4.974,11.097-11.087
	c0-5.653-4.255-10.329-9.73-11V-0.639H365.198z M376.472,29.568c0,3.817-3.105,6.93-6.932,6.93c-3.825,0-6.93-3.113-6.93-6.93
	c0-3.826,3.105-6.939,6.93-6.939C373.366,22.629,376.472,25.742,376.472,29.568z"/>
<path opacity="0.7" fill="none" stroke="#29292B" stroke-miterlimit="10" d="M399.457-0.639v19.208
	c-5.475,0.671-9.721,5.346-9.721,11c0,6.113,4.974,11.087,11.088,11.087c6.114,0,11.096-4.974,11.096-11.087
	c0-5.653-4.254-10.329-9.729-11V-0.639H399.457z M407.755,29.568c0,3.817-3.106,6.93-6.931,6.93c-3.818,0-6.931-3.113-6.931-6.93
	c0-3.826,3.112-6.939,6.931-6.939C404.649,22.629,407.755,25.742,407.755,29.568z"/>
<path opacity="0.7" fill="none" stroke="#29292B" stroke-miterlimit="10" d="M85.747,18.471c-6.114,0-11.096,4.974-11.096,11.097
	c0,5.79,4.464,10.554,10.133,11.038c0,1.74,0,4.239,0,5.444c-2.506,0-42.597,0-45.095,0c0-2.524,0-34.494,0-34.494H15.669v2.734
	c6.292,0,19.426,0,21.278,0c0,2.523,0,34.494,0,34.494h50.572v-8.283c5.274-0.857,9.318-5.426,9.318-10.933
	C96.836,23.445,91.862,18.471,85.747,18.471z M85.747,36.499c-3.825,0-6.931-3.113-6.931-6.93c0-3.826,3.106-6.939,6.931-6.939
	c3.818,0,6.932,3.113,6.932,6.939C92.679,33.385,89.565,36.499,85.747,36.499z"/>
<path opacity="0.7" fill="none" stroke="#29292B" stroke-miterlimit="10" d="M147.909,18.471c-5.774,0-10.522,4.432-11.041,10.069
	c-4.884,0-16.603,0-18.496,0c0-2.458,0-26.689,0-26.689H55.314v-2.49H52.58v2.49H15.669v2.735c6.923,0,21.229,0,36.911,0v13.983
	c-5.475,0.671-9.729,5.346-9.729,11c0,6.113,4.982,11.087,11.097,11.087s11.088-4.974,11.088-11.087c0-5.653-4.255-10.329-9.722-11
	V4.586c27.845,0,58.862,0,60.318,0c0,2.466,0,26.696,0,26.696h21.334c0.825,5.298,5.41,9.374,10.943,9.374
	c6.114,0,11.087-4.974,11.087-11.087C158.997,23.445,154.023,18.471,147.909,18.471z M60.878,29.568c0,3.817-3.114,6.93-6.931,6.93
	c-3.825,0-6.932-3.113-6.932-6.93c0-3.826,3.107-6.939,6.932-6.939C57.764,22.629,60.878,25.742,60.878,29.568z M147.909,36.499
	c-3.826,0-6.931-3.113-6.931-6.93c0-3.826,3.105-6.939,6.931-6.939c3.816,0,6.931,3.113,6.931,6.939
	C154.84,33.385,151.726,36.499,147.909,36.499z"/>
<path opacity="0.7" fill="none" stroke="#29292B" stroke-miterlimit="10" d="M131.054-0.639v14.242c0,0,76.217,0,78.862,0
	c0,1.084,0,3.235,0,4.926c-5.613,0.542-10.012,5.281-10.012,11.04c0,6.113,4.974,11.087,11.088,11.087
	c6.114,0,11.096-4.974,11.096-11.087c0-5.556-4.109-10.151-9.438-10.959v-7.74c0,0-76.218,0-78.854,0c0-1.471,0-7.4,0-11.508
	H131.054z M217.922,29.568c0,3.817-3.105,6.93-6.93,6.93c-3.817,0-6.932-3.113-6.932-6.93c0-3.826,3.114-6.939,6.932-6.939
	C214.817,22.629,217.922,25.742,217.922,29.568z"/>
<path opacity="0.7" fill="none" stroke="#29292B" stroke-miterlimit="10" d="M339.543,18.569V-0.639h-2.741v19.208
	c-5.467,0.671-9.722,5.346-9.722,11c0,5.644,4.254,10.319,9.722,10.99c0,2.079,0,5.079,0,6.341c-2.5,0-42.443,0-44.951,0
	c0-2.523,0-34.817,0-34.817h-67.03c0,0,0,39.378,0,41.942c-0.777,0-18.642,0-43.713,0v-13.45c5.499-0.655,9.778-5.338,9.778-11.007
	c0-6.123-4.974-11.097-11.088-11.097s-11.097,4.974-11.097,11.097c0,5.628,4.222,10.279,9.673,10.982v13.474
	c-55.408,0-142.996,0-162.706,0v2.733h211.886c0,0,0-39.386,0-41.942c2.564,0,58.999,0,61.562,0c0,2.524,0,34.825,0,34.825h50.426
	v-9.082c5.467-0.671,9.722-5.346,9.722-10.99C349.266,23.915,345.011,19.24,339.543,18.569z M172.867,29.568
	c0-3.826,3.105-6.939,6.931-6.939c3.825,0,6.931,3.113,6.931,6.939c0,3.817-3.105,6.93-6.931,6.93
	C175.973,36.499,172.867,33.385,172.867,29.568z M338.178,36.499c-3.826,0-6.939-3.113-6.939-6.93c0-3.826,3.113-6.939,6.939-6.939
	c3.817,0,6.931,3.113,6.931,6.939C345.109,33.385,341.995,36.499,338.178,36.499z"/>
<rect x="258.426" y="25.055" opacity="0.7" fill="none" stroke="#29292B" stroke-miterlimit="10" width="2.597" height="7.627"/>
<path opacity="0.7" fill="none" stroke="#29292B" stroke-miterlimit="10" d="M304.654-0.639v19.208
	c-5.466,0.671-9.721,5.346-9.721,11c0,6.113,4.974,11.087,11.088,11.087c6.122,0,11.096-4.974,11.096-11.087
	c0-5.653-4.253-10.329-9.729-11V-0.639H304.654z M312.96,29.568c0,3.817-3.113,6.93-6.939,6.93c-3.817,0-6.931-3.113-6.931-6.93
	c0-3.826,3.114-6.939,6.931-6.939C309.847,22.629,312.96,25.742,312.96,29.568z"/>
<path opacity="0.7" fill="none" stroke="#29292B" stroke-miterlimit="10" d="M440.914,35.981c2.716,0,4.981-1.861,5.661-4.359
	c4.625,0,17.275,0,18.19,0c0.791,0.841,32.754,34.84,32.754,34.84h17.801v2.5h17.341v-7.853H515.32v2.62c-4.343,0-15.721,0-16.62,0
	c-0.792-0.841-32.755-34.841-32.755-34.841h-19.258c-0.557-2.677-2.928-4.699-5.773-4.699c-3.244,0-5.889,2.644-5.889,5.896
	C435.025,33.337,437.67,35.981,440.914,35.981z M440.914,27.659c1.342,0,2.425,1.092,2.425,2.427c0,1.333-1.083,2.425-2.425,2.425
	c-1.334,0-2.427-1.092-2.427-2.425C438.487,28.751,439.58,27.659,440.914,27.659z"/>
<path opacity="0.7" fill="none" stroke="#29292B" stroke-miterlimit="10" d="M511.624,35.981c2.523,0,4.667-1.602,5.506-3.834
	c0.253,0,0.568,0,0.931,0v10.934h-2.74v7.862h17.341v-7.862h-11.865V32.147c23.443,0,130.855,0,131.86,0
	c0.734,0.736,9.524,9.527,9.524,9.527s33.741,0,34.842,0c0.655,0.664,4.903,4.901,4.903,4.901s10.221-10.222,10.956-10.966
	c0.93,0,13.2,0,16.37,0c0.551,2.677,2.929,4.699,5.768,4.699c3.249,0,5.895-2.645,5.895-5.888c0-3.251-2.646-5.896-5.895-5.896
	c-2.71,0-4.977,1.853-5.663,4.351h-17.605c0,0-8.242,8.241-9.825,9.834c-1.174-1.173-3.771-3.769-3.771-3.769s-33.741,0-34.831,0
	c-0.737-0.736-9.537-9.527-9.537-9.527H517.455c-0.339-2.936-2.808-5.225-5.831-5.225c-3.243,0-5.887,2.644-5.887,5.896
	C505.737,33.337,508.381,35.981,511.624,35.981z M735.02,31.994c1.342,0,2.424,1.083,2.424,2.427c0,1.334-1.082,2.426-2.424,2.426
	c-1.337,0-2.429-1.092-2.429-2.426C732.591,33.077,733.683,31.994,735.02,31.994z M511.624,27.659c1.343,0,2.428,1.092,2.428,2.427
	c0,1.333-1.085,2.425-2.428,2.425c-1.333,0-2.426-1.092-2.426-2.425C509.198,28.751,510.291,27.659,511.624,27.659z"/>
<path opacity="0.7" fill="none" stroke="#29292B" stroke-miterlimit="10" d="M798.149,64.36v-65h-2.739v65h-9.106
	c-0.646-2.556-2.945-4.464-5.702-4.464c-3.251,0-5.889,2.645-5.889,5.888c0,3.251,2.638,5.896,5.889,5.896
	c2.797,0,5.135-1.966,5.732-4.586h48.538V64.36H798.149z M780.602,68.209c-1.336,0-2.428-1.083-2.428-2.426
	c0-1.334,1.092-2.426,2.428-2.426c1.342,0,2.425,1.092,2.425,2.426C783.026,67.126,781.943,68.209,780.602,68.209z"/>
<path opacity="0.7" fill="none" stroke="#29292B" stroke-miterlimit="10" d="M687.284,94.325v-9.647h13.191V53.482H671.36v31.195
	h13.191v9.647c-2.588,0.623-4.529,2.943-4.529,5.718c0,3.251,2.645,5.896,5.896,5.896c2.776,0,5.097-1.941,5.719-4.53h67.305
	c0.622,2.589,2.946,4.53,5.72,4.53c3.25,0,5.888-2.645,5.888-5.896s-2.638-5.888-5.888-5.888c-2.773,0-5.098,1.932-5.72,4.521
	h-67.305C691.119,96.533,689.436,94.843,687.284,94.325z M685.918,102.47c-1.333,0-2.426-1.092-2.426-2.426s1.093-2.426,2.426-2.426
	c1.336,0,2.428,1.092,2.428,2.426S687.254,102.47,685.918,102.47z M764.661,97.617c1.335,0,2.425,1.092,2.425,2.426
	s-1.09,2.426-2.425,2.426c-1.336,0-2.426-1.092-2.426-2.426S763.325,97.617,764.661,97.617z"/>
<path opacity="0.7" fill="none" stroke="#29292B" stroke-miterlimit="10" d="M650.965,81.208V47.934h-28.419v33.274h7.124v3.768
	c-2.679,0.55-4.698,2.928-4.698,5.767c0,3.25,2.645,5.896,5.896,5.896c3.243,0,5.889-2.645,5.889-5.896
	c0-2.709-1.854-4.983-4.354-5.662v-3.873H650.965z M633.295,90.743c0,1.342-1.095,2.426-2.428,2.426
	c-1.343,0-2.435-1.084-2.435-2.426c0-1.335,1.092-2.426,2.435-2.426C632.2,88.317,633.295,89.408,633.295,90.743z"/>
<path opacity="0.7" fill="none" stroke="#29292B" stroke-miterlimit="10" d="M551.14,48.282v33.273h30.847V65.25h11.087
	c0.795,2.321,2.969,4.004,5.557,4.004c3.251,0,5.889-2.646,5.889-5.896c0-3.243-2.638-5.888-5.889-5.888
	c-2.959,0-5.395,2.2-5.808,5.038h-10.836V48.282H551.14z M598.63,60.931c1.336,0,2.426,1.092,2.426,2.427
	c0,1.342-1.09,2.426-2.426,2.426c-1.342,0-2.425-1.084-2.425-2.426C596.205,62.022,597.288,60.931,598.63,60.931z"/>
<path opacity="0.7" fill="none" stroke="#29292B" stroke-miterlimit="10" d="M532.661,121.192v-3.089h35.447V96.46
	c2.587-0.622,4.52-2.943,4.52-5.717c0-3.252-2.636-5.889-5.887-5.889c-3.253,0-5.897,2.636-5.897,5.889
	c0,2.774,1.935,5.095,4.529,5.717c0,4.239,0,16.92,0,18.909c-1.316,0-17.41,0-32.712,0v-2.038H515.32v2.038
	c-6.173,0-10.465,0-10.756,0c-0.453-0.452-2.492-2.49-3.809-3.809c0.72-0.979,1.164-2.175,1.164-3.486
	c0-3.251-2.646-5.896-5.889-5.896c-3.25,0-5.896,2.644-5.896,5.896c0,3.251,2.646,5.896,5.896,5.896
	c0.947,0,1.829-0.251,2.621-0.647l4.779,4.78h11.889v3.089H532.661z M564.313,90.743c0-1.335,1.085-2.426,2.428-2.426
	c1.333,0,2.426,1.091,2.426,2.426c0,1.342-1.093,2.426-2.426,2.426C565.398,93.169,564.313,92.085,564.313,90.743z M496.031,110.5
	c-1.343,0-2.428-1.091-2.428-2.426c0-1.335,1.085-2.426,2.428-2.426c1.333,0,2.426,1.091,2.426,2.426
	C498.457,109.409,497.364,110.5,496.031,110.5z"/>
<path opacity="0.7" fill="none" stroke="#29292B" stroke-miterlimit="10" d="M515.32,79.364v7.86h17.341v-2.911
	c3.379,0,9.372,0,10.116,0c0.437,0.437,2.314,2.312,3.583,3.583c-0.471,0.849-0.762,1.812-0.762,2.847
	c0,3.25,2.638,5.896,5.889,5.896s5.896-2.645,5.896-5.896c0-3.252-2.645-5.889-5.896-5.889c-1.221,0-2.354,0.372-3.301,1.003
	l-4.275-4.278h-11.25v-2.215H515.32z M551.487,88.317c1.344,0,2.429,1.091,2.429,2.426c0,1.342-1.085,2.426-2.429,2.426
	c-1.333,0-2.426-1.084-2.426-2.426C549.062,89.408,550.154,88.317,551.487,88.317z"/>
<path opacity="0.7" fill="none" stroke="#29292B" stroke-miterlimit="10" d="M670.156,116.065c0,0-15.609,15.617-16.377,16.377
	c-1.053,0-87.345,0-97.35,0c-0.711-2.451-2.953-4.262-5.639-4.262c-2.676,0-4.925,1.811-5.636,4.262h-12.494v-1.779H515.32v1.779
	h-35.974c0,0-7.375,7.376-8.104,8.104c-1.019,0-55.902,0-65.074,0c-0.873-2.167-2.984-3.705-5.459-3.705
	c-3.25,0-5.895,2.645-5.895,5.896c0,3.243,2.645,5.888,5.895,5.888c3.058,0,5.557-2.354,5.84-5.347h65.825
	c0,0,7.385-7.375,8.104-8.103c0.573,0,18.066,0,34.842,0v3.348h17.341v-3.348c5.808,0,10.359,0,12.355,0
	c0.519,2.726,2.903,4.788,5.774,4.788c2.872,0,5.267-2.062,5.783-4.788h98.338c0,0,15.615-15.609,16.377-16.377
	c1.016,0,136.31,0,163.583,0v-2.733H670.156z M400.71,145.164c-1.342,0-2.426-1.092-2.426-2.426c0-1.342,1.083-2.426,2.426-2.426
	c1.335,0,2.427,1.083,2.427,2.426C403.137,144.072,402.045,145.164,400.71,145.164z M550.791,136.494
	c-1.333,0-2.426-1.084-2.426-2.427c0-1.334,1.093-2.426,2.426-2.426c1.343,0,2.429,1.092,2.429,2.426
	C553.22,135.41,552.134,136.494,550.791,136.494z"/>
<path opacity="0.7" fill="none" stroke="#29292B" stroke-miterlimit="10" d="M660.977,151.416c0,0-23.574,23.583-24.353,24.351
	c-1.113,0-58.835,0-58.835,0s-8.761,8.759-9.495,9.495c-1.123,0-200.67,0-200.67,0s0,32.609,0,35.132c-2.555,0-40.446,0-40.446,0
	l-22.896,22.905v49.722c-2.548,0.656-4.44,2.952-4.44,5.693c0,3.252,2.646,5.896,5.896,5.896c3.244,0,5.888-2.645,5.888-5.896
	c0-2.806-1.973-5.151-4.609-5.741c0-7.061,0-47.531,0-48.542c0.76-0.76,20.542-20.542,21.294-21.302c1.1,0,42.047,0,42.047,0
	s0-32.61,0-35.133c2.701,0,199.069,0,199.069,0s8.758-8.759,9.494-9.487c1.107,0,58.836,0,58.836,0s23.575-23.575,24.343-24.352
	c0.99,0,138.194,0,172.772,0v-2.742H660.977z M308.164,298.714c0,1.335-1.091,2.427-2.426,2.427c-1.342,0-2.426-1.092-2.426-2.427
	c0-1.342,1.083-2.425,2.426-2.425C307.073,296.289,308.164,297.372,308.164,298.714z"/>
<path opacity="0.7" fill="none" stroke="#29292B" stroke-miterlimit="10" d="M313.381,254.128v6.397h-2.556v28.193h8.088v-28.193
	h-2.798c0-1.998,0-4.666,0-5.265c0.759-0.76,23.13-23.13,23.898-23.898c1.116,0,178.09,0,179.205,0
	c0.771,0.76,39.081,38.415,39.873,39.2c0,0.761,0,4.772,0,6.608h-2.629v28.184h8.088v-28.184h-2.727v-7.756l-41.489-40.786H338.88
	L313.381,254.128z"/>
<path opacity="0.7" fill="none" stroke="#29292B" stroke-miterlimit="10" d="M346.685,240.379c1.116,0,161.956,0,163.072,0
	c0.774,0.768,31.97,31.962,32.737,32.73c0,0.623,0,2.734,0,4.06h-2.209v28.184h8.09v-28.184h-3.147v-5.192l-34.331-34.34H345.553
	l-16.361,16.361v6.527h-3.122v28.193h8.096v-28.193h-2.241c0-2.038,0-4.796,0-5.394C332.67,254.386,345.941,241.115,346.685,240.379
	z"/>
<path opacity="0.7" fill="none" stroke="#29292B" stroke-miterlimit="10" d="M354.83,249.825c1.116,0,147.656,0,148.779,0
	c0.76,0.761,22.178,22.177,22.938,22.937c0,0.615,0,2.88,0,4.408h-2.208v28.184h8.087v-28.184h-3.138v-5.54l-24.546-24.545H353.697
	l-8.427,8.427v5.014h-2.791v28.193h8.088v-28.193h-2.564c0-1.528,0-3.356,0-3.881C348.683,255.964,354.15,250.497,354.83,249.825z"
	/>
<path opacity="0.7" fill="none" stroke="#29292B" stroke-miterlimit="10" d="M263.448,260.525v28.193h2.095c0,0.696,0,1.424,0,1.804
	c-0.735,0.736-13.619,13.629-14.355,14.364c-1.059,0-16.037,0-16.037,0s-17.558,17.558-18.328,18.328c-1.124,0-171.965,0-171.965,0
	s-9.293,9.291-10.029,10.026c-0.809,0-13.086,0-19.159,0v2.732h20.292c0,0,9.292-9.284,10.028-10.028c1.125,0,171.966,0,171.966,0
	s17.566-17.557,18.326-18.326c1.061,0,16.04,0,16.04,0l15.964-15.963v-2.937h3.251v-28.193H263.448z"/>
<path opacity="0.7" fill="none" stroke="#29292B" stroke-miterlimit="10" d="M101.922,293.167c-2.773,0-5.095,1.941-5.717,4.528
	H15.669v2.734h80.537c0.622,2.589,2.944,4.521,5.717,4.521c3.252,0,5.896-2.644,5.896-5.887
	C107.819,295.811,105.174,293.167,101.922,293.167z M101.922,301.487c-1.334,0-2.426-1.09-2.426-2.425
	c0-1.342,1.092-2.426,2.426-2.426c1.335,0,2.427,1.084,2.427,2.426C104.35,300.397,103.258,301.487,101.922,301.487z"/>
<path opacity="0.7" fill="none" stroke="#29292B" stroke-miterlimit="10" d="M261.119,471.984h-34.396c0,0,0,66.236,0,68.864
	c-2.459,0-35.002,0-37.469,0c0-2.595,0-52.689,0-52.689h-72.756v47.467c-2.2,0.474-3.939,2.198-4.464,4.381H15.669v2.742h96.363
	c0.525,2.186,2.265,3.899,4.464,4.384v47.143h144.622V471.984z M119.238,490.892c2.572,0,64.701,0,67.28,0
	c0,2.598,0,52.692,0,52.692h42.937c0,0,0-66.231,0-68.859c1.125,0,7.021,0,13.216,0c0,8.857,0,79.816,0,82.301
	c-2.58,0-65.858,0-68.438,0c0-2.313,0-17.019,0-17.019h-11.305v-7.496h-30.507v7.496h-8.953c-0.509-2.101-2.143-3.759-4.229-4.31
	C119.238,527.698,119.238,493.172,119.238,490.892z M115.323,541.383c0-1.343,1.093-2.435,2.428-2.435
	c1.342,0,2.426,1.092,2.426,2.435c0,1.335-1.084,2.418-2.426,2.418C116.416,543.801,115.323,542.718,115.323,541.383z
	 M119.238,592.384c0-2.33,0-38.416,0-45.325c2.087-0.548,3.721-2.206,4.229-4.31c1.23,0,4.578,0,8.953,0v7.093h30.507v-7.093
	c4.618,0,7.926,0,8.572,0c0,2.313,0,17.01,0,17.01h73.905v-85.034c6.106,0,11.873,0,12.98,0c0,2.646,0,115.239,0,117.884
	C255.725,592.602,121.892,592.384,119.238,592.384z"/>
<path opacity="0.7" fill="none" stroke="#29292B" stroke-miterlimit="10" d="M182.087,506.187h-19.159v-7.878h-30.507v17.332h30.507
	v-6.721c3.841,0,14.501,0,16.426,0c0,2.571,0,43.672,0,43.672h58.425v-41.569h3.251v-28.193h-9.237v28.193h3.251
	c0,9.211,0,36.709,0,38.837c-2.54,0-50.418,0-52.958,0C182.087,547.295,182.087,506.187,182.087,506.187z"/>
<path opacity="0.7" fill="none" stroke="#29292B" stroke-miterlimit="10" d="M281.839,456.464c1.051,0,29.236,0,34.404,0
	c0.51,2.732,2.904,4.812,5.783,4.812c3.251,0,5.896-2.638,5.896-5.888c0-3.251-2.645-5.896-5.896-5.896
	c-2.669,0-4.91,1.795-5.628,4.238h-35.755l-14.518,15.737v13.361h-3.372v28.193h9.244v-28.193h-3.138c0-3.792,0-11.541,0-12.293
	C269.521,469.816,281.095,457.271,281.839,456.464z M322.026,452.963c1.334,0,2.426,1.092,2.426,2.425
	c0,1.336-1.092,2.428-2.426,2.428c-1.334,0-2.426-1.092-2.426-2.428C319.6,454.055,320.692,452.963,322.026,452.963z"/>
<path opacity="0.7" fill="none" stroke="#29292B" stroke-miterlimit="10" d="M322.269,543.584h65.259
	c0.792,2.321,2.967,4.002,5.557,4.002c3.25,0,5.887-2.645,5.887-5.896c0-3.243-2.636-5.889-5.887-5.889
	c-2.96,0-5.395,2.199-5.808,5.047c-9.414,0-62.856,0-63.876,0c-0.76-0.759-21.545-21.545-22.305-22.304c0-0.737,0-5.209,0-7.522
	h3.712v-28.193h-9.244v28.193h2.799v8.652L322.269,543.584z M393.085,539.265c1.333,0,2.426,1.091,2.426,2.426
	c0,1.343-1.092,2.426-2.426,2.426c-1.344,0-2.427-1.083-2.427-2.426C390.658,540.355,391.741,539.265,393.085,539.265z"/>
<path opacity="0.7" fill="none" stroke="#29292B" stroke-miterlimit="10" d="M409.616,435.939c-0.858,0-9.844,0-13.07,0v-2.566
	h-24.95v8.321h24.95v-3.024h14.201c0,0,6.455-6.447,7.166-7.157c1.092,0,74.472,0,77.1,0c0,2.482,0,32.134,0,33.183
	c-0.768,0.769-23.284,23.284-24.045,24.046c-0.291,0-0.809,0-1.342,0v-3.372h-24.962v8.32h24.962v-2.216h2.475l25.646-25.645v-37.06
	h-80.965C416.781,428.77,410.327,435.226,409.616,435.939z"/>
<path opacity="0.7" fill="none" stroke="#29292B" stroke-miterlimit="10" d="M140.396,414.486c-3.243,0-5.888,2.646-5.888,5.891
	c0,1.236,0.38,2.376,1.035,3.332c-1.294,1.292-3.445,3.437-3.915,3.904c-1.011,0-97.172,0-115.959,0v2.742h117.092l4.828-4.829
	c0.841,0.462,1.787,0.744,2.806,0.744c3.251,0,5.896-2.643,5.896-5.894C146.292,417.132,143.646,414.486,140.396,414.486z
	 M140.396,422.803c-1.335,0-2.427-1.085-2.427-2.426c0-1.335,1.092-2.428,2.427-2.428c1.342,0,2.426,1.093,2.426,2.428
	C142.822,421.718,141.738,422.803,140.396,422.803z"/>
<rect x="15.669" y="471.271" opacity="0.7" fill="none" stroke="#29292B" stroke-miterlimit="10" width="6.535" height="18.725"/>
<rect x="15.669" y="436.383" opacity="0.7" fill="none" stroke="#29292B" stroke-miterlimit="10" width="6.535" height="20.331"/>
<rect x="15.669" y="401.491" opacity="0.7" fill="none" stroke="#29292B" stroke-miterlimit="10" width="6.3" height="19.41"/>
<path opacity="0.7" fill="none" stroke="#29292B" stroke-miterlimit="10" d="M32.345,405.834v-29.98H21.969v-9.722h-6.3v19.412h6.3
	v-6.948c2.555,0,6.292,0,7.642,0c0,2.176,0,22.168,0,27.109c-2.701,0.534-4.755,2.919-4.755,5.774c0,3.25,2.645,5.896,5.896,5.896
	c3.252,0,5.889-2.646,5.889-5.896C36.64,408.786,34.82,406.537,32.345,405.834z M30.751,413.904c-1.334,0-2.426-1.09-2.426-2.425
	c0-1.336,1.092-2.426,2.426-2.426c1.334,0,2.426,1.09,2.426,2.426C33.178,412.814,32.086,413.904,30.751,413.904z"/>
<path opacity="0.7" fill="none" stroke="#29292B" stroke-miterlimit="10" d="M79.277,328.179c-2.878,0-5.272,2.077-5.782,4.811
	H54.335c0,0-7.942,7.941-8.67,8.669c-0.866,0-21.48,0-29.997,0v2.735h31.128c0,0,7.935-7.934,8.671-8.672c0.954,0,15.229,0,18.181,0
	c0.728,2.443,2.96,4.24,5.628,4.24c3.252,0,5.896-2.646,5.896-5.888C85.173,330.821,82.529,328.179,79.277,328.179z M79.277,336.499
	c-1.334,0-2.426-1.092-2.426-2.425c0-1.343,1.091-2.435,2.426-2.435c1.335,0,2.427,1.092,2.427,2.435
	C81.704,335.407,80.612,336.499,79.277,336.499z"/>
<path opacity="0.7" fill="none" stroke="#29292B" stroke-miterlimit="10" d="M219.775,335.804c-2.588,0-4.764,1.684-5.557,4.004
	h-49.083c0,0-8.054,8.057-8.782,8.783c-1.027,0-121.063,0-140.684,0v2.734h141.815c0,0,8.056-8.048,8.784-8.785
	c1.019,0,41.06,0,47.7,0c0.413,2.849,2.847,5.047,5.807,5.047c3.243,0,5.888-2.645,5.888-5.896
	C225.663,338.448,223.018,335.804,219.775,335.804z M219.775,344.117c-1.343,0-2.426-1.083-2.426-2.426
	c0-1.336,1.083-2.425,2.426-2.425c1.334,0,2.426,1.089,2.426,2.425C222.201,343.034,221.109,344.117,219.775,344.117z"/>
<path opacity="0.7" fill="none" stroke="#29292B" stroke-miterlimit="10" d="M799.851,295.568c-0.818,1.012-1.319,2.273-1.319,3.666
	c0,2.781,1.94,5.094,4.521,5.716v10.579h-7.812v20.098h18.366v-20.098h-7.813v-10.579c2.591-0.622,4.521-2.935,4.521-5.716
	c0-3.245-2.638-5.89-5.889-5.89c-0.862,0-1.674,0.195-2.408,0.526c-2.54-2.54-10.288-10.288-10.918-10.918
	c0-1.108,0-62.841,0-62.841h-26.084c0,0-7.82,7.822-8.549,8.55c-1.091,0-52.142,0-53.651,0c-0.592-1.011-7.126-12.189-9.677-16.54
	c2.057-1.9,3.35-4.61,3.35-7.626c0-5.734-4.666-10.401-10.398-10.401c-5.736,0-10.401,4.667-10.401,10.401
	s4.665,10.393,10.401,10.393c1.729,0,3.372-0.429,4.803-1.182l10.36,17.688h56.346c0,0,7.822-7.821,8.55-8.548
	c1.019,0,19.838,0,22.216,0c0,2.612,0,61.238,0,61.238L799.851,295.568z M806.852,299.233c0,1.341-1.089,2.426-2.426,2.426
	c-1.342,0-2.425-1.085-2.425-2.426c0-1.335,1.083-2.428,2.425-2.428C805.763,296.806,806.852,297.898,806.852,299.233z
	 M686.09,209.347c-2.678,0-4.854-2.175-4.854-4.853c0-2.678,2.176-4.853,4.854-4.853c2.676,0,4.851,2.175,4.851,4.853
	C690.94,207.171,688.766,209.347,686.09,209.347z"/>
<path opacity="0.7" fill="none" stroke="#29292B" stroke-miterlimit="10" d="M788.794,183.135H682.062
	c0,0-26.721,26.72-27.498,27.497c-0.906,0-19.814,0-26.081,0c-0.762-2.378-2.962-4.116-5.591-4.116
	c-3.251,0-5.896,2.636-5.896,5.887s2.645,5.897,5.896,5.897c2.92,0,5.33-2.144,5.791-4.934h27.014c0,0,26.721-26.721,27.495-27.498
	c1.119,0,103.355,0,104.469,0c0.627,0.625,33.524,33.525,47.212,47.211v-3.874L788.794,183.135z M622.892,214.83
	c-1.343,0-2.426-1.083-2.426-2.426c0-1.334,1.083-2.426,2.426-2.426c1.335,0,2.428,1.092,2.428,2.426
	C625.319,213.746,624.227,214.83,622.892,214.83z"/>
<path opacity="0.7" fill="none" stroke="#29292B" stroke-miterlimit="10" d="M788.445,202.197h-28.904
	c-1.046-4.634-5.193-8.104-10.134-8.104c-5.736,0-10.401,4.667-10.401,10.401s4.665,10.393,10.401,10.393
	c5.587,0,10.143-4.424,10.377-9.956c6.276,0,26.608,0,27.53,0c0.742,0.752,15.211,15.213,15.948,15.958c0,0.809,0,8.548,0,11.937
	c-2.646,0.574-4.634,2.936-4.634,5.751c0,2.814,1.988,5.175,4.634,5.75v11.581h-8.791v20.106h18.366v-20.106h-6.835v-11.654
	c2.533-0.655,4.409-2.944,4.409-5.677c0-2.734-1.876-5.015-4.409-5.678v-13.143L788.445,202.197z M749.407,209.347
	c-2.676,0-4.854-2.175-4.854-4.853c0-2.678,2.178-4.853,4.854-4.853s4.853,2.175,4.853,4.853
	C754.26,207.171,752.083,209.347,749.407,209.347z M806.949,238.576c0,1.333-1.092,2.426-2.424,2.426
	c-1.344,0-2.436-1.092-2.436-2.426c0-1.334,1.092-2.426,2.436-2.426C805.857,236.15,806.949,237.242,806.949,238.576z"/>
<path opacity="0.7" fill="none" stroke="#29292B" stroke-miterlimit="10" d="M796.322,168.229h-17.226
	c-0.559-2.677-2.936-4.699-5.774-4.699c-2.879,0-5.272,2.079-5.783,4.812h-99.785c-0.639-2.556-2.942-4.464-5.694-4.464
	c-3.251,0-5.894,2.645-5.894,5.896c0,1.585,0.637,3.024,1.665,4.084c-4.691,4.691-19.492,19.491-20.138,20.138
	c-1.053,0-106.692,0-119.674,0c-0.646-2.555-2.942-4.464-5.699-4.464c-3.251,0-5.889,2.637-5.889,5.888s2.638,5.896,5.889,5.896
	c2.798,0,5.135-1.965,5.733-4.585h120.771l21.391-21.392c0.582,0.194,1.197,0.323,1.844,0.323c2.8,0,5.137-1.965,5.735-4.578h99.897
	c0.729,2.435,2.962,4.23,5.63,4.23c2.717,0,4.982-1.852,5.67-4.352c3.978,0,15.261,0,16.166,0
	c0.691,0.723,31.811,33.223,39.714,41.467v-3.957L796.322,168.229z M512.32,197.846c-1.336,0-2.428-1.084-2.428-2.426
	c0-1.334,1.092-2.426,2.428-2.426c1.343,0,2.425,1.092,2.425,2.426C514.745,196.762,513.663,197.846,512.32,197.846z M662.06,172.2
	c-1.341,0-2.426-1.092-2.426-2.426c0-1.343,1.085-2.426,2.426-2.426c1.335,0,2.427,1.083,2.427,2.426
	C664.486,171.108,663.395,172.2,662.06,172.2z M773.322,171.853c-1.335,0-2.428-1.092-2.428-2.427c0-1.342,1.093-2.426,2.428-2.426
	c1.343,0,2.426,1.084,2.426,2.426C775.748,170.761,774.665,171.853,773.322,171.853z"/>
<path opacity="0.7" fill="none" stroke="#29292B" stroke-miterlimit="10" d="M148.37,109.805c-3,0-5.451,2.264-5.815,5.16H61.8
	c0,0-14.25,15.787-15.019,16.645c-0.921,0-22.03,0-31.112,0v2.733h32.326c0,0,14.25-15.787,15.019-16.644c1.107,0,69.319,0,79.841,0
	c0.825,2.264,2.976,3.889,5.516,3.889c3.252,0,5.896-2.636,5.896-5.887C154.266,112.45,151.622,109.805,148.37,109.805z
	 M148.37,118.127c-1.334,0-2.426-1.091-2.426-2.426c0-1.343,1.092-2.427,2.426-2.427c1.335,0,2.427,1.084,2.427,2.427
	C150.796,117.036,149.705,118.127,148.37,118.127z"/>
<path opacity="0.7" fill="none" stroke="#29292B" stroke-miterlimit="10" d="M251.665,110.5c-3.251,0-5.896,2.645-5.896,5.896
	c0,1.076,0.315,2.08,0.825,2.953c-1.407,1.407-3.793,3.801-4.279,4.286c-1.107,0-67.435,0-68.542,0
	c-0.769-0.768-19.063-19.069-19.063-19.069H54.675c0,0-9.657,9.663-10.393,10.4c-0.874,0-20.55,0-28.613,0v2.741h29.746
	c0,0,9.656-9.665,10.392-10.4c1.117,0,96.664,0,97.771,0c0.768,0.769,19.062,19.062,19.062,19.062h70.807l5.031-5.03
	c0.922,0.59,2.005,0.946,3.187,0.946c3.25,0,5.887-2.645,5.887-5.888C257.552,113.145,254.916,110.5,251.665,110.5z
	 M251.665,118.822c-1.343,0-2.427-1.092-2.427-2.426c0-1.342,1.084-2.426,2.427-2.426c1.334,0,2.426,1.084,2.426,2.426
	C254.091,117.73,252.999,118.822,251.665,118.822z"/>
<path opacity="0.7" fill="none" stroke="#29292B" stroke-miterlimit="10" d="M207.708,178.695c-0.922-0.6-2.014-0.954-3.187-0.954
	c-3.25,0-5.896,2.644-5.896,5.895c0,3.251,2.646,5.896,5.896,5.896c3.251,0,5.896-2.645,5.896-5.896
	c0-1.083-0.315-2.086-0.832-2.959l2.426-2.427c0,0,0-9.042,0-10.053c0.719-0.711,7.569-7.561,7.569-7.561v-4.554h5.508v-18.027
	h-10.166v18.027h1.925c0,1.367,0,2.927,0,3.421c-0.575,0.566-5.015,5.014-6.818,6.811c-0.704-1.885-2.353-3.309-4.367-3.705v-6.527
	h3.712v-18.027h-10.166v18.027h3.712v6.656c-2.467,0.704-4.295,2.952-4.295,5.645c0,3.251,2.646,5.896,5.896,5.896
	c1.957,0,3.68-0.97,4.755-2.442c0,2.354,0,4.789,0,5.282C208.978,177.425,208.307,178.096,207.708,178.695z M204.521,186.062
	c-1.334,0-2.426-1.092-2.426-2.427c0-1.342,1.092-2.426,2.426-2.426c1.335,0,2.427,1.083,2.427,2.426
	C206.948,184.971,205.856,186.062,204.521,186.062z M204.521,170.809c-1.334,0-2.426-1.083-2.426-2.426
	c0-1.334,1.092-2.426,2.426-2.426c1.335,0,2.427,1.092,2.427,2.426C206.948,169.726,205.856,170.809,204.521,170.809z"/>
<path opacity="0.7" fill="none" stroke="#29292B" stroke-miterlimit="10" d="M223.066,171.416c-1.003-0.801-2.256-1.294-3.639-1.294
	c-3.252,0-5.896,2.636-5.896,5.888c0,3.251,2.644,5.896,5.896,5.896c3.251,0,5.896-2.645,5.896-5.896
	c0-0.865-0.202-1.69-0.541-2.435l13.231-13.231v-4.262h2.791v-18.027h-10.167v18.027h4.635c0,1.165,0,2.62,0,3.13
	C234.647,159.835,226.059,168.432,223.066,171.416z M219.427,178.436c-1.334,0-2.427-1.083-2.427-2.426
	c0-1.334,1.092-2.427,2.427-2.427c1.334,0,2.425,1.092,2.425,2.427C221.853,177.353,220.761,178.436,219.427,178.436z"/>
<path opacity="0.7" fill="none" stroke="#29292B" stroke-miterlimit="10" d="M187.78,186.563c0.736,0.737,9.357,9.357,9.357,9.357
	h24.36c0,0,6.616-6.616,7.335-7.335c1.083,0,36.427,0,37.51,0c0.72,0.719,7.546,7.538,7.546,7.538h19.062
	c0.995,1.844,2.919,3.114,5.159,3.114c3.251,0,5.887-2.646,5.887-5.896c0-3.251-2.636-5.896-5.887-5.896
	c-3.251,0-5.895,2.644-5.895,5.896c0,0.016,0.007,0.032,0.007,0.048c-4.504,0-16.337,0-17.202,0c-0.72-0.72-7.545-7.538-7.545-7.538
	h-39.775c0,0-6.624,6.616-7.335,7.336c-1.052,0-21.044,0-22.096,0c-0.735-0.736-9.356-9.358-9.356-9.358s-28.582,0-31.089,0
	c0-2.337,0-17.792,0-17.792h-4.286c-0.817-2.265-2.968-3.89-5.516-3.89c-3.243,0-5.896,2.645-5.896,5.887
	c0,3.252,2.653,5.896,5.896,5.896c3,0,5.451-2.256,5.823-5.16c0.413,0,0.85,0,1.246,0c0,2.329,0,17.792,0,17.792
	S186.689,186.563,187.78,186.563z M298.111,190.915c1.334,0,2.426,1.092,2.426,2.427c0,1.343-1.092,2.426-2.426,2.426
	c-1.343,0-2.426-1.083-2.426-2.426C295.685,192.006,296.769,190.915,298.111,190.915z M148.022,170.462
	c-1.334,0-2.426-1.084-2.426-2.427c0-1.333,1.092-2.426,2.426-2.426c1.343,0,2.426,1.092,2.426,2.426
	C150.448,169.378,149.365,170.462,148.022,170.462z"/>
<path opacity="0.7" fill="none" stroke="#29292B" stroke-miterlimit="10" d="M33.292,168.327v15.932
	c-1.107-0.007-2.742-0.024-3.308-0.024c-0.566-0.583-9.721-9.891-14.314-14.558v3.898l13.159,13.385l4.464,0.033v0.283h10.166
	v-18.949H33.292z"/>
<path opacity="0.7" fill="none" stroke="#29292B" stroke-miterlimit="10" d="M118.309,214.312v-20.89c0,0-95.458,0-96.583,0
	c-0.46-0.461-3.712-3.721-6.057-6.065v3.874l4.925,4.925c0,0,92.319,0,94.981,0c0,1.918,0,13.579,0,18.157h-3.252v18.95h10.167
	v-18.95H118.309z"/>
<path opacity="0.7" fill="none" stroke="#29292B" stroke-miterlimit="10" d="M368.255,179.98h179.407c0,0,17.842-17.833,18.6-18.601
	c0.974,0,22.38,0,26.983,0c0.599,2.612,2.936,4.578,5.732,4.578c3.242,0,5.887-2.646,5.887-5.888c0-3.252-2.645-5.896-5.887-5.896
	c-2.759,0-5.062,1.909-5.702,4.464h-28.144c0,0-17.835,17.842-18.593,18.61c-0.52,0-37.446,0-77.447,0v-10.983h-7.837v-2.33h-17.794
	v7.862h17.794v-2.79c1.576,0,3.913,0,5.104,0c0,1.52,0,5.912,0,8.241c-46.625,0-96.373,0-96.971,0
	c-0.728-0.735-8.605-8.613-8.605-8.613s-27.837,0-30.337,0c0-2.523,0-34.946,0-34.946h-26.486c-0.202-3.066-2.733-5.508-5.847-5.508
	c-2.798,0-5.136,1.965-5.734,4.577c-2.006,0-6.154,0-7.691,0c0-0.971,0-2.903,0-4.634h7.642v-18.488h-15.714v18.488h5.338v7.375
	h10.458c0.646,2.556,2.944,4.465,5.701,4.465c2.411,0,4.489-1.464,5.395-3.542c4.787,0,22.079,0,24.198,0c0,2.523,0,34.946,0,34.946
	s30.845,0,31.946,0C360.378,172.095,368.255,179.98,368.255,179.98z M598.978,157.644c1.334,0,2.426,1.083,2.426,2.426
	c0,1.334-1.092,2.426-2.426,2.426c-1.342,0-2.435-1.092-2.435-2.426C596.543,158.726,597.636,157.644,598.978,157.644z
	 M298.111,136.494c-1.343,0-2.426-1.084-2.426-2.427c0-1.334,1.083-2.426,2.426-2.426c1.334,0,2.426,1.092,2.426,2.426
	C300.538,135.41,299.446,136.494,298.111,136.494z"/>
<path opacity="0.7" fill="none" stroke="#29292B" stroke-miterlimit="10" d="M303.733,166.733c-0.72-2.442-2.953-4.237-5.622-4.237
	c-3.251,0-5.895,2.636-5.895,5.887s2.644,5.896,5.895,5.896c2.879,0,5.273-2.078,5.783-4.811h9.025v1.868h-7.877v18.48h12.705
	v-18.48h-2.095v-12.714h7.183v-18.488h-15.714v18.488h5.799v8.111H303.733z M298.111,170.809c-1.343,0-2.426-1.083-2.426-2.426
	c0-1.334,1.083-2.426,2.426-2.426c1.334,0,2.426,1.092,2.426,2.426C300.538,169.726,299.446,170.809,298.111,170.809z"/>
<path opacity="0.7" fill="none" stroke="#29292B" stroke-miterlimit="10" d="M304.347,213.835h4.464
	c0.761,2.378,2.96,4.117,5.589,4.117c2.709,0,4.982-1.853,5.661-4.352h12.124l3.445-3.445h20.016v-28.428h-20.332v24.877
	c-1.625,1.625-3.833,3.825-4.262,4.262c-0.825,0-7.949,0-10.886,0c-0.55-2.676-2.928-4.699-5.766-4.699
	c-2.92,0-5.33,2.135-5.791,4.926h-4.263v-8.565h-12.244v8.565h-3.446c-0.469-2.791-2.879-4.926-5.799-4.926
	c-2.758,0-5.055,1.908-5.702,4.464h-41.651v5.063h-4.869v3.485h-5.548v-3.485h-10.166v18.027h10.166v-11.8h5.548v11.8h10.167
	v-18.027h-2.564c0-0.753,0-1.634,0-2.33c2.394,0,34.816,0,38.885,0c0.599,2.621,2.936,4.586,5.734,4.586
	c2.629,0,4.828-1.739,5.589-4.117h3.656v6.713h12.244V213.835z M314.4,209.629c1.334,0,2.426,1.093,2.426,2.428
	c0,1.342-1.092,2.426-2.426,2.426c-1.334,0-2.426-1.084-2.426-2.426C311.974,210.722,313.065,209.629,314.4,209.629z
	 M282.858,214.482c-1.334,0-2.426-1.084-2.426-2.426c0-1.335,1.092-2.428,2.426-2.428c1.334,0,2.426,1.093,2.426,2.428
	C285.284,213.398,284.192,214.482,282.858,214.482z"/>
<path opacity="0.7" fill="none" stroke="#29292B" stroke-miterlimit="10" d="M178.893,245.878c0,0,0,6.405,0,8.314
	c-2.475,0-90.913,0-103.675,0c-0.081-3.178-2.677-5.742-5.88-5.742c-3.243,0-5.887,2.653-5.887,5.896
	c0,3.251,2.644,5.896,5.887,5.896c2.322,0,4.311-1.358,5.273-3.315h107.015c0,0,0-6.406,0-8.314c2.58,0,66.262,0,68.842,0
	c0,1.642,0,8.33,0,11.913h-2.265v28.193h8.088v-28.193h-3.089v-14.646H178.893z M69.337,256.772c-1.334,0-2.426-1.091-2.426-2.426
	c0-1.334,1.092-2.426,2.426-2.426c1.342,0,2.426,1.092,2.426,2.426C71.764,255.681,70.68,256.772,69.337,256.772z"/>
<path opacity="0.7" fill="none" stroke="#29292B" stroke-miterlimit="10" d="M134.313,240.258v-6.995h2.968v-18.95h-10.174v18.95
	h4.473v7.1c-2.127,0.582-3.785,2.297-4.229,4.473H15.669v2.733h111.787c0.679,2.499,2.952,4.351,5.661,4.351
	c3.251,0,5.896-2.644,5.896-5.887C139.013,243.186,136.99,240.808,134.313,240.258z M133.117,248.45
	c-1.334,0-2.426-1.083-2.426-2.417c0-1.343,1.092-2.427,2.426-2.427c1.342,0,2.426,1.084,2.426,2.427
	C135.543,247.367,134.458,248.45,133.117,248.45z"/>
<path opacity="0.7" fill="none" stroke="#29292B" stroke-miterlimit="10" d="M185.993,254.363c0,0,0,5.329,0,7.108
	c-2.532,0-114.318,0-125.892,0c-0.687-2.499-2.952-4.351-5.669-4.351c-3.243,0-5.888,2.645-5.888,5.896
	c0,3.243,2.645,5.888,5.888,5.888c2.847,0,5.217-2.021,5.775-4.699h128.528c0,0,0-5.322,0-7.102c2.401,0,27.44,0,29.842,0
	c0,0.866,0,2.241,0,3.421h-2.499v28.193h8.087v-28.193h-2.854v-6.162H185.993z M54.432,265.442c-1.334,0-2.426-1.092-2.426-2.426
	c0-1.343,1.092-2.426,2.426-2.426c1.343,0,2.426,1.083,2.426,2.426C56.858,264.351,55.775,265.442,54.432,265.442z"/>
<polygon opacity="0.7" fill="none" stroke="#29292B" stroke-miterlimit="10" points="200.599,260.525 200.599,271.695 
	15.669,271.695 15.669,274.436 200.599,274.436 200.599,288.718 208.686,288.718 208.686,260.525 "/>
</svg>
