<?xml version="1.0" encoding="utf-8"?>
<!-- Generator: Adobe Illustrator 16.0.0, SVG Export Plug-In . SVG Version: 6.00 Build 0)  -->
<!DOCTYPE svg PUBLIC "-//W3C//DTD SVG 1.1//EN" "http://www.w3.org/Graphics/SVG/1.1/DTD/svg11.dtd">
<svg version="1.1" id="Layer_1" xmlns="http://www.w3.org/2000/svg" xmlns:xlink="http://www.w3.org/1999/xlink" x="0px" y="0px"
	 width="199.167px" height="58px" viewBox="0 0 199.167 58" enable-background="new 0 0 199.167 58" xml:space="preserve">
<path fill="#363638" d="M124.807,52.656c2.343,0,4.478-0.602,6.376-1.791c0.147,0.33,0.358,0.635,0.629,0.905
	c0.58,0.579,1.318,0.886,2.136,0.886s1.556-0.307,2.138-0.888c0.579-0.58,0.886-1.319,0.886-2.136v-9.141
	c0-3.344-1.198-6.238-3.562-8.602c-2.363-2.363-5.258-3.562-8.602-3.562s-6.238,1.199-8.602,3.562
	c-2.364,2.363-3.562,5.258-3.562,8.602s1.198,6.238,3.562,8.602C118.568,51.457,121.463,52.656,124.807,52.656z M124.807,34.375
	c1.71,0,3.125,0.585,4.328,1.789c1.204,1.203,1.789,2.619,1.789,4.328s-0.585,3.125-1.789,4.328
	c-1.203,1.204-2.618,1.789-4.328,1.789s-3.125-0.585-4.328-1.789c-1.204-1.203-1.789-2.619-1.789-4.328s0.585-3.125,1.789-4.328
	C121.682,34.96,123.097,34.375,124.807,34.375z"/>
<path fill="#C73C57" d="M19.997,35.326c-1.922,0-3.479,1.559-3.479,3.481v10.151c0,1.922,1.558,3.48,3.479,3.48h0.52
	c1.922,0,3.48-1.559,3.48-3.48V38.808c0-1.923-1.559-3.481-3.48-3.481H19.997z M19.997,35.326"/>
<path fill="#C73C57" d="M31.407,52.439h0.516c1.926,0,3.48-1.559,3.48-3.48V33.006c0-1.922-1.555-3.48-3.48-3.48h-0.516
	c-1.922,0-3.48,1.559-3.48,3.48v15.953C27.927,50.881,29.485,52.439,31.407,52.439L31.407,52.439z M31.407,52.439"/>
<path fill="#C73C57" d="M43.333,52.439c1.922,0,3.48-1.559,3.48-3.48V24.885c0-1.922-1.559-3.48-3.48-3.48h-0.52
	c-1.922,0-3.48,1.559-3.48,3.48v24.074c0,1.922,1.559,3.48,3.48,3.48H43.333z M43.333,52.439"/>
<path fill="#852940" d="M157.606,24.583c-0.489,0-0.973-0.198-1.328-0.587c-0.903-1.002-2.189-1.574-3.536-1.574
	c-1.367,0-2.627,0.559-3.541,1.567c-0.658,0.732-1.793,0.785-2.527,0.123c-0.728-0.666-0.786-1.794-0.123-2.529
	c1.578-1.741,3.833-2.737,6.191-2.737c2.354,0,4.607,1.001,6.187,2.744c0.663,0.733,0.611,1.863-0.122,2.529
	C158.469,24.431,158.037,24.583,157.606,24.583L157.606,24.583z M157.606,24.583"/>
<path fill="#C73C57" d="M161.573,20.104c-0.455,0-0.908-0.175-1.259-0.519c-2.026-2.016-4.718-3.127-7.572-3.127
	c-2.865,0-5.556,1.106-7.577,3.123c-0.699,0.692-1.834,0.692-2.527-0.013c-0.698-0.699-0.698-1.829,0.006-2.528
	c2.695-2.678,6.285-4.158,10.099-4.158c3.81,0,7.392,1.48,10.094,4.164c0.706,0.699,0.706,1.829,0.007,2.535
	C162.492,19.928,162.032,20.104,161.573,20.104L161.573,20.104z M161.573,20.104"/>
<path fill="#C73C57" d="M165.539,15.636c-0.448,0-0.892-0.168-1.24-0.501c-3.122-2.994-7.229-4.641-11.557-4.641
	c-4.339,0-8.445,1.647-11.561,4.641c-0.71,0.681-1.847,0.659-2.527-0.052c-0.688-0.717-0.664-1.846,0.046-2.533
	c3.786-3.635,8.771-5.633,14.042-5.633c5.254,0,10.239,2.004,14.031,5.639c0.717,0.682,0.74,1.816,0.054,2.527
	C166.477,15.45,166.005,15.636,165.539,15.636L165.539,15.636z M165.539,15.636"/>
<path fill="#363638" d="M52.562,48.93c2.255,2.473,4.998,3.727,8.154,3.727c2.541,0,4.835-0.857,6.815-2.546
	c2.224-1.885,3.471-4.317,3.705-7.222c0.029-0.336,0.044-0.671,0.044-1.006c0-2.512-0.843-4.785-2.525-6.779
	c-1.593-1.812-3.9-3.061-6.804-3.699c-1.486-0.387-2.212-0.828-2.563-1.145c-0.531-0.646-0.748-1.34-0.681-2.176
	c0.069-0.851,0.411-1.51,1.075-2.073c0.66-0.56,1.398-0.793,2.239-0.725c0.854,0.069,1.517,0.413,2.032,1.012l0.698,0.926
	c0.512,0.682,1.316,1.057,2.267,1.057c0.819,0,1.558-0.307,2.136-0.886c0.581-0.579,0.888-1.319,0.888-2.138
	c0-0.591-0.155-1.136-0.446-1.597c-0.256-0.422-0.552-0.832-0.914-1.259c-1.939-2.133-4.261-3.214-6.899-3.214
	c-2.227,0-4.221,0.743-5.922,2.204c-1.905,1.618-2.979,3.703-3.19,6.207c-0.196,2.506,0.524,4.743,2.142,6.648
	c0.039,0.045,0.08,0.089,0.124,0.129c1.564,1.449,3.464,2.385,5.646,2.784c1.664,0.441,2.876,1.078,3.575,1.86
	c0.821,0.977,1.168,2.078,1.062,3.367c-0.106,1.274-0.632,2.295-1.607,3.121c-0.876,0.742-1.84,1.103-2.946,1.103
	c-0.135,0-0.27-0.005-0.396-0.015c-1.283-0.106-2.305-0.635-3.183-1.686c-0.137-0.145-0.257-0.299-0.383-0.497
	c-0.595-0.88-1.496-1.364-2.538-1.364c-0.816,0-1.556,0.307-2.138,0.888c-0.579,0.58-0.886,1.319-0.886,2.136
	c0,0.646,0.198,1.259,0.575,1.773C51.969,48.228,52.253,48.592,52.562,48.93z"/>
<path fill="#363638" d="M80.389,51.769c0.579-0.58,0.886-1.319,0.886-2.136V35.021l7.932,15.862c0.56,1.144,1.538,1.773,2.756,1.773
	c1.166,0,2.101-0.543,2.656-1.572l8.031-16.062v14.611c0,0.816,0.307,1.556,0.888,2.138c0.58,0.579,1.318,0.886,2.136,0.886
	s1.556-0.307,2.138-0.888c0.579-0.58,0.886-1.319,0.886-2.136V22.211c0-0.816-0.306-1.554-0.889-2.139
	c-0.58-0.579-1.318-0.885-2.135-0.885c-1.164,0-2.111,0.562-2.693,1.629L91.962,42.868L80.918,20.767
	c-0.558-1.018-1.505-1.579-2.667-1.579c-0.816,0-1.555,0.306-2.139,0.888c-0.579,0.581-0.885,1.319-0.885,2.135v27.422
	c0,0.816,0.307,1.556,0.888,2.138C77.275,52.93,79.225,52.932,80.389,51.769z"/>
<path fill="#363638" d="M153.082,52.656c2.343,0,4.478-0.602,6.376-1.791c0.147,0.33,0.358,0.635,0.629,0.905
	c0.58,0.579,1.318,0.886,2.136,0.886s1.556-0.307,2.138-0.888c0.579-0.58,0.886-1.319,0.886-2.136v-9.141
	c0-3.344-1.198-6.238-3.562-8.602c-2.363-2.363-5.258-3.562-8.602-3.562s-6.238,1.199-8.602,3.562
	c-2.364,2.363-3.562,5.258-3.562,8.602s1.198,6.238,3.562,8.602C146.844,51.457,149.738,52.656,153.082,52.656z M153.082,34.375
	c1.71,0,3.125,0.585,4.328,1.789c1.204,1.203,1.789,2.619,1.789,4.328s-0.585,3.125-1.789,4.328
	c-1.203,1.204-2.618,1.789-4.328,1.789s-3.125-0.585-4.328-1.789c-1.204-1.203-1.789-2.619-1.789-4.328s0.585-3.125,1.789-4.328
	C149.957,34.96,151.372,34.375,153.082,34.375z"/>
<path fill="#363638" d="M170.612,48.93c2.255,2.473,4.998,3.727,8.154,3.727c2.541,0,4.835-0.857,6.815-2.546
	c2.224-1.885,3.471-4.317,3.705-7.222c0.029-0.336,0.044-0.671,0.044-1.006c0-2.512-0.843-4.785-2.525-6.779
	c-1.593-1.812-3.9-3.061-6.804-3.699c-1.486-0.387-2.212-0.828-2.563-1.145c-0.531-0.646-0.748-1.34-0.681-2.176
	c0.069-0.851,0.411-1.51,1.075-2.073c0.66-0.56,1.397-0.793,2.239-0.725c0.854,0.069,1.517,0.413,2.032,1.012l0.698,0.926
	c0.512,0.682,1.316,1.057,2.267,1.057c0.819,0,1.558-0.307,2.136-0.886c0.581-0.579,0.888-1.319,0.888-2.138
	c0-0.591-0.155-1.136-0.446-1.597c-0.256-0.422-0.552-0.832-0.914-1.259c-1.939-2.133-4.261-3.214-6.899-3.214
	c-2.227,0-4.221,0.743-5.922,2.204c-1.905,1.618-2.979,3.703-3.19,6.207c-0.196,2.506,0.524,4.743,2.142,6.648
	c0.039,0.045,0.08,0.089,0.124,0.129c1.564,1.449,3.464,2.385,5.646,2.784c1.664,0.441,2.876,1.078,3.575,1.86
	c0.821,0.977,1.168,2.078,1.062,3.367c-0.106,1.274-0.632,2.295-1.607,3.121c-0.876,0.742-1.84,1.103-2.946,1.103
	c-0.135,0-0.27-0.005-0.396-0.015c-1.283-0.106-2.305-0.635-3.183-1.686c-0.137-0.145-0.257-0.299-0.383-0.497
	c-0.595-0.88-1.496-1.364-2.538-1.364c-0.816,0-1.556,0.307-2.138,0.888c-0.579,0.58-0.886,1.319-0.886,2.136
	c0,0.646,0.198,1.259,0.575,1.773C170.02,48.228,170.304,48.592,170.612,48.93z"/>
</svg>
